<svg width="50" height="50" viewBox="0 0 50 50" fill="none" xmlns="http://www.w3.org/2000/svg">
<path d="M47.6562 6.25H2.34375C1.72215 6.25 1.12601 6.49693 0.686468 6.93647C0.24693 7.37601 0 7.97215 0 8.59375L0 33.5938C0 34.2154 0.24693 34.8115 0.686468 35.251C1.12601 35.6906 1.72215 35.9375 2.34375 35.9375H21.875V39.0625H20.3125C19.2769 39.0637 18.284 39.4757 17.5517 40.208C16.8194 40.9403 16.4075 41.9331 16.4062 42.9688C16.4062 43.1759 16.4886 43.3747 16.6351 43.5212C16.7816 43.6677 16.9803 43.75 17.1875 43.75H32.8125C33.0197 43.75 33.2184 43.6677 33.3649 43.5212C33.5114 43.3747 33.5938 43.1759 33.5938 42.9688C33.5925 41.9331 33.1806 40.9403 32.4483 40.208C31.716 39.4757 30.7231 39.0637 29.6875 39.0625H28.125V35.9375H33.5938C33.8009 35.9375 33.9997 35.8552 34.1462 35.7087C34.2927 35.5622 34.375 35.3635 34.375 35.1562C34.375 34.949 34.2927 34.7503 34.1462 34.6038C33.9997 34.4573 33.8009 34.375 33.5938 34.375H2.34375C2.13655 34.375 1.93784 34.2927 1.79132 34.1462C1.64481 33.9997 1.5625 33.801 1.5625 33.5938V8.59375C1.5625 8.38655 1.64481 8.18784 1.79132 8.04132C1.93784 7.89481 2.13655 7.8125 2.34375 7.8125H47.6562C47.8634 7.8125 48.0622 7.89481 48.2087 8.04132C48.3552 8.18784 48.4375 8.38655 48.4375 8.59375V14.8438C48.4375 15.051 48.5198 15.2497 48.6663 15.3962C48.8128 15.5427 49.0116 15.625 49.2188 15.625C49.4259 15.625 49.6247 15.5427 49.7712 15.3962C49.9177 15.2497 50 15.051 50 14.8438V8.59375C50 7.97215 49.7531 7.37601 49.3135 6.93647C48.874 6.49693 48.2779 6.25 47.6562 6.25ZM31.8977 42.1875H18.1023C18.2645 41.7309 18.564 41.3356 18.9597 41.0558C19.3554 40.7761 19.8279 40.6256 20.3125 40.625H29.6875C30.1721 40.6256 30.6446 40.7761 31.0403 41.0558C31.436 41.3356 31.7355 41.7309 31.8977 42.1875ZM26.5625 35.9375V39.0625H23.4375V35.9375H26.5625Z" fill="#D0A659"/>
<path d="M47.6562 43.75H38.2812C37.6596 43.75 37.0635 43.5031 36.624 43.0635C36.1844 42.624 35.9375 42.0279 35.9375 41.4062V19.5312C35.9375 18.9096 36.1844 18.3135 36.624 17.874C37.0635 17.4344 37.6596 17.1875 38.2812 17.1875H47.6562C48.2779 17.1875 48.874 17.4344 49.3135 17.874C49.7531 18.3135 50 18.9096 50 19.5312V41.4062C50 42.0279 49.7531 42.624 49.3135 43.0635C48.874 43.5031 48.2779 43.75 47.6562 43.75ZM38.2812 18.75C38.074 18.75 37.8753 18.8323 37.7288 18.9788C37.5823 19.1253 37.5 19.324 37.5 19.5312V41.4062C37.5 41.6135 37.5823 41.8122 37.7288 41.9587C37.8753 42.1052 38.074 42.1875 38.2812 42.1875H47.6562C47.8635 42.1875 48.0622 42.1052 48.2087 41.9587C48.3552 41.8122 48.4375 41.6135 48.4375 41.4062V19.5312C48.4375 19.324 48.3552 19.1253 48.2087 18.9788C48.0622 18.8323 47.8635 18.75 47.6562 18.75H38.2812Z" fill="#D0A659"/>
<path d="M42.9688 37.5C42.1962 37.5 41.4409 37.2709 40.7986 36.8417C40.1562 36.4125 39.6555 35.8024 39.3598 35.0886C39.0642 34.3748 38.9868 33.5894 39.1376 32.8317C39.2883 32.0739 39.6603 31.3779 40.2066 30.8316C40.7529 30.2853 41.4489 29.9133 42.2067 29.7626C42.9644 29.6118 43.7498 29.6892 44.4636 29.9848C45.1774 30.2805 45.7875 30.7812 46.2167 31.4236C46.6459 32.0659 46.875 32.8212 46.875 33.5938C46.8738 34.6294 46.4618 35.6222 45.7295 36.3545C44.9972 37.0868 44.0044 37.4988 42.9688 37.5ZM42.9688 31.25C42.5052 31.25 42.0521 31.3875 41.6666 31.645C41.2812 31.9025 40.9808 32.2686 40.8034 32.6968C40.626 33.1251 40.5796 33.5964 40.67 34.051C40.7605 34.5056 40.9837 34.9233 41.3115 35.251C41.6393 35.5788 42.0569 35.802 42.5115 35.8925C42.9662 35.9829 43.4374 35.9365 43.8657 35.7591C44.2939 35.5817 44.66 35.2813 44.9175 34.8959C45.175 34.5104 45.3125 34.0573 45.3125 33.5938C45.3125 32.9722 45.0656 32.376 44.626 31.9365C44.1865 31.4969 43.5904 31.25 42.9688 31.25Z" fill="#D0A659"/>
<path d="M39.8438 21.875C40.2752 21.875 40.625 21.5252 40.625 21.0938C40.625 20.6623 40.2752 20.3125 39.8438 20.3125C39.4123 20.3125 39.0625 20.6623 39.0625 21.0938C39.0625 21.5252 39.4123 21.875 39.8438 21.875Z" fill="#D0A659"/>
<path d="M42.9688 21.875C43.4002 21.875 43.75 21.5252 43.75 21.0938C43.75 20.6623 43.4002 20.3125 42.9688 20.3125C42.5373 20.3125 42.1875 20.6623 42.1875 21.0938C42.1875 21.5252 42.5373 21.875 42.9688 21.875Z" fill="#D0A659"/>
<path d="M46.0938 21.875C46.5252 21.875 46.875 21.5252 46.875 21.0938C46.875 20.6623 46.5252 20.3125 46.0938 20.3125C45.6623 20.3125 45.3125 20.6623 45.3125 21.0938C45.3125 21.5252 45.6623 21.875 46.0938 21.875Z" fill="#D0A659"/>
<path d="M39.8438 25C40.2752 25 40.625 24.6502 40.625 24.2188C40.625 23.7873 40.2752 23.4375 39.8438 23.4375C39.4123 23.4375 39.0625 23.7873 39.0625 24.2188C39.0625 24.6502 39.4123 25 39.8438 25Z" fill="#D0A659"/>
<path d="M42.9688 25C43.4002 25 43.75 24.6502 43.75 24.2188C43.75 23.7873 43.4002 23.4375 42.9688 23.4375C42.5373 23.4375 42.1875 23.7873 42.1875 24.2188C42.1875 24.6502 42.5373 25 42.9688 25Z" fill="#D0A659"/>
<path d="M46.0938 25C46.5252 25 46.875 24.6502 46.875 24.2188C46.875 23.7873 46.5252 23.4375 46.0938 23.4375C45.6623 23.4375 45.3125 23.7873 45.3125 24.2188C45.3125 24.6502 45.6623 25 46.0938 25Z" fill="#D0A659"/>
<path d="M39.8438 28.125C40.2752 28.125 40.625 27.7752 40.625 27.3438C40.625 26.9123 40.2752 26.5625 39.8438 26.5625C39.4123 26.5625 39.0625 26.9123 39.0625 27.3438C39.0625 27.7752 39.4123 28.125 39.8438 28.125Z" fill="#D0A659"/>
<path d="M42.9688 28.125C43.4002 28.125 43.75 27.7752 43.75 27.3438C43.75 26.9123 43.4002 26.5625 42.9688 26.5625C42.5373 26.5625 42.1875 26.9123 42.1875 27.3438C42.1875 27.7752 42.5373 28.125 42.9688 28.125Z" fill="#D0A659"/>
<path d="M46.0938 28.125C46.5252 28.125 46.875 27.7752 46.875 27.3438C46.875 26.9123 46.5252 26.5625 46.0938 26.5625C45.6623 26.5625 45.3125 26.9123 45.3125 27.3438C45.3125 27.7752 45.6623 28.125 46.0938 28.125Z" fill="#D0A659"/>
<path d="M39.8438 40.625C40.2752 40.625 40.625 40.2752 40.625 39.8438C40.625 39.4123 40.2752 39.0625 39.8438 39.0625C39.4123 39.0625 39.0625 39.4123 39.0625 39.8438C39.0625 40.2752 39.4123 40.625 39.8438 40.625Z" fill="#D0A659"/>
<path d="M42.9688 40.625C43.4002 40.625 43.75 40.2752 43.75 39.8438C43.75 39.4123 43.4002 39.0625 42.9688 39.0625C42.5373 39.0625 42.1875 39.4123 42.1875 39.8438C42.1875 40.2752 42.5373 40.625 42.9688 40.625Z" fill="#D0A659"/>
<path d="M46.0938 40.625C46.5252 40.625 46.875 40.2752 46.875 39.8438C46.875 39.4123 46.5252 39.0625 46.0938 39.0625C45.6623 39.0625 45.3125 39.4123 45.3125 39.8438C45.3125 40.2752 45.6623 40.625 46.0938 40.625Z" fill="#D0A659"/>
</svg>
