<svg width="49" height="49" viewBox="0 0 49 49" fill="none" xmlns="http://www.w3.org/2000/svg">
<path d="M32.9219 5.35938H6.89062C6.46953 5.35938 6.125 5.70391 6.125 6.125V42.875C6.125 43.2961 6.46953 43.6406 6.89062 43.6406H32.9219C33.343 43.6406 33.6875 43.2961 33.6875 42.875V6.125C33.6875 5.70391 33.343 5.35938 32.9219 5.35938ZM17.6094 42.1094H11.4844V39.0469H17.6094V42.1094ZM17.6094 37.5156H11.4844V35.2188H17.6094V37.5156ZM15.3125 28.3281V29.8594C15.3125 30.112 15.4427 30.357 15.657 30.4948C16.7519 31.2222 17.4486 32.3936 17.5864 33.6875H11.515C11.6528 32.3936 12.3495 31.2298 13.4444 30.4948C13.6587 30.3494 13.7889 30.112 13.7889 29.8594V28.3281H15.3202H15.3125ZM13.7812 26.7969V25.2656H15.3125V26.7969H13.7812ZM28.3281 42.1094H22.2031V39.0469H28.3281V42.1094ZM28.3281 37.5156H22.2031V35.2188H28.3281V37.5156ZM26.0312 28.3281V29.8594C26.0312 30.112 26.1614 30.357 26.3758 30.4948C27.4706 31.2222 28.1673 32.3936 28.3052 33.6875H22.2338C22.3716 32.3936 23.0683 31.2298 24.1631 30.4948C24.3775 30.3494 24.5077 30.112 24.5077 29.8594V28.3281H26.0389H26.0312ZM24.5 26.7969V25.2656H26.0312V26.7969H24.5ZM32.1562 42.1094H29.8594V34.1545C29.8594 32.3094 29.0095 30.5867 27.5625 29.4689V24.5C27.5625 24.0789 27.218 23.7344 26.7969 23.7344H23.7344C23.3133 23.7344 22.9688 24.0789 22.9688 24.5V29.4689C21.5217 30.5867 20.6719 32.3094 20.6719 34.1545V42.1094H19.1406V34.1545C19.1406 32.3094 18.2908 30.5867 16.8438 29.4689V24.5C16.8438 24.0789 16.4992 23.7344 16.0781 23.7344H13.0156C12.5945 23.7344 12.25 24.0789 12.25 24.5V29.4689C10.803 30.5867 9.95312 32.3094 9.95312 34.1545V42.1094H7.65625V21.4375H32.1562V42.1094ZM17.6094 13.7812V16.8438H11.4844V13.7812H17.6094ZM11.5609 12.25C11.6375 11.7217 11.7753 11.2087 11.9744 10.7188H17.1117C17.3108 11.2087 17.4486 11.7217 17.5252 12.25H11.5533H11.5609ZM17.5328 18.375C17.4562 18.9033 17.3184 19.4163 17.1194 19.9062H11.982C11.783 19.4163 11.6452 18.9033 11.5686 18.375H17.5405H17.5328ZM28.3281 13.7812V16.8438H22.2031V13.7812H28.3281ZM22.2797 12.25C22.3563 11.7217 22.4941 11.2087 22.6931 10.7188H27.8305C28.0295 11.2087 28.1673 11.7217 28.2439 12.25H22.272H22.2797ZM28.2516 18.375C28.175 18.9033 28.0372 19.4163 27.8381 19.9062H22.7008C22.5017 19.4163 22.3639 18.9033 22.2873 18.375H28.2592H28.2516ZM32.1562 19.9062H29.4536C29.6833 19.1866 29.8211 18.4363 29.8441 17.6859C29.8441 17.663 29.8594 17.64 29.8594 17.6094V13.0156C29.8594 13.0156 29.8441 12.9697 29.8441 12.9391C29.8058 11.7906 29.5302 10.6422 29.0095 9.60859C28.8794 9.34828 28.6114 9.1875 28.3281 9.1875H22.2031C21.9122 9.1875 21.6442 9.34828 21.5217 9.60859C21.0088 10.6422 20.7255 11.7906 20.6872 12.9391C20.6872 12.962 20.6719 12.985 20.6719 13.0156V17.6094C20.6719 17.6094 20.6872 17.6553 20.6872 17.6859C20.7102 18.4439 20.8403 19.1866 21.0777 19.9062H18.7348C18.9645 19.1866 19.1023 18.4363 19.1253 17.6859C19.1253 17.663 19.1406 17.64 19.1406 17.6094V13.0156C19.1406 13.0156 19.1253 12.9697 19.1253 12.9391C19.087 11.7906 18.8114 10.6422 18.2908 9.60859C18.1606 9.34828 17.8927 9.1875 17.6094 9.1875H11.4844C11.1934 9.1875 10.9255 9.34828 10.803 9.60859C10.29 10.6422 10.0067 11.7906 9.96844 12.9391C9.96844 12.962 9.95312 12.985 9.95312 13.0156V17.6094C9.95312 17.6094 9.96844 17.6553 9.96844 17.6859C9.99141 18.4439 10.1216 19.1866 10.3589 19.9062H7.65625V6.89062H32.1562V19.9062Z" fill="#D0A659"/>
<path d="M42.1094 2.29688H39.8125C39.3914 2.29688 39.0469 2.64141 39.0469 3.0625V7.65625H36.75V6.125C36.75 4.01188 35.035 2.29688 32.9219 2.29688H6.89062C4.7775 2.29688 3.0625 4.01188 3.0625 6.125V42.875C3.0625 44.9881 4.7775 46.7031 6.89062 46.7031H32.9219C35.035 46.7031 36.75 44.9881 36.75 42.875V41.3438H39.0469V45.9375C39.0469 46.3586 39.3914 46.7031 39.8125 46.7031H42.1094C44.2225 46.7031 45.9375 44.9881 45.9375 42.875V6.125C45.9375 4.01188 44.2225 2.29688 42.1094 2.29688ZM35.2188 8.42188V42.875C35.2188 44.1383 34.1852 45.1719 32.9219 45.1719H6.89062C5.62734 45.1719 4.59375 44.1383 4.59375 42.875V6.125C4.59375 4.86172 5.62734 3.82812 6.89062 3.82812H32.9219C34.1852 3.82812 35.2188 4.86172 35.2188 6.125V8.42188ZM39.0469 39.8125H36.75V33.6875H39.0469V39.8125ZM39.0469 32.1562H36.75V16.8438H39.0469V32.1562ZM39.0469 15.3125H36.75V9.1875H39.0469V15.3125ZM44.4062 42.875C44.4062 44.1383 43.3727 45.1719 42.1094 45.1719H40.5781V3.82812H42.1094C43.3727 3.82812 44.4062 4.86172 44.4062 6.125V42.875Z" fill="#D0A659"/>
</svg>
