<svg width="50" height="50" viewBox="0 0 50 50" fill="none" xmlns="http://www.w3.org/2000/svg">
<path d="M46.0938 35.1563H42.1875V18.75H45.3125C45.5197 18.75 45.7184 18.6677 45.8649 18.5212C46.0114 18.3747 46.0938 18.176 46.0938 17.9688V8.59376C46.0938 8.38656 46.0114 8.18785 45.8649 8.04133C45.7184 7.89482 45.5197 7.81251 45.3125 7.81251H42.0844C41.9504 7.36302 41.6754 6.9685 41.3001 6.68716C40.9248 6.40583 40.469 6.25257 40 6.25001H39.6875C39.1078 6.25146 38.5522 6.48239 38.1423 6.89231C37.7324 7.30223 37.5014 7.85779 37.5 8.43751V17.4844C36.8191 16.5371 35.9445 15.7454 34.9343 15.1619C33.9241 14.5785 32.8014 14.2165 31.6406 14.1V10.9375C31.6406 10.7303 31.5583 10.5316 31.4118 10.3851C31.2653 10.2386 31.0666 10.1563 30.8594 10.1563H30.0781V7.03126C30.0781 6.82406 29.9958 6.62535 29.8493 6.47883C29.7028 6.33232 29.5041 6.25001 29.2969 6.25001H28.5156V3.90626C28.5156 3.69906 28.4333 3.50035 28.2868 3.35383C28.1403 3.20732 27.9416 3.12501 27.7344 3.12501H19.6094C19.2344 3.12395 18.863 3.19729 18.5166 3.34078C18.1702 3.48428 17.8558 3.69507 17.5914 3.96095L16.6352 4.91642C16.4928 5.06376 16.4141 5.26111 16.4159 5.46595C16.4177 5.67079 16.4998 5.86674 16.6447 6.01159C16.7895 6.15644 16.9855 6.2386 17.1903 6.24038C17.3952 6.24216 17.5925 6.16342 17.7398 6.02111L18.6953 5.06564C18.8151 4.94525 18.9575 4.84983 19.1144 4.78493C19.2713 4.72002 19.4396 4.68691 19.6094 4.68751H26.9531V6.25001H26.1719C25.9647 6.25001 25.766 6.33232 25.6194 6.47883C25.4729 6.62535 25.3906 6.82406 25.3906 7.03126V10.1563H24.6094C24.4022 10.1563 24.2035 10.2386 24.0569 10.3851C23.9104 10.5316 23.8281 10.7303 23.8281 10.9375V14.1031C22.6673 14.2196 21.5446 14.5816 20.5344 15.1651C19.5242 15.7486 18.6496 16.5402 17.9688 17.4875V16.3539C17.9679 15.7465 17.7262 15.1641 17.2967 14.7346C16.8672 14.305 16.2848 14.0633 15.6773 14.0625H15.625V10.9375C15.625 10.7303 15.5427 10.5316 15.3962 10.3851C15.2497 10.2386 15.051 10.1563 14.8438 10.1563H14.0625V7.03126C14.0625 6.82406 13.9802 6.62535 13.8337 6.47883C13.6872 6.33232 13.4885 6.25001 13.2812 6.25001H8.59375C8.38655 6.25001 8.18784 6.33232 8.04132 6.47883C7.89481 6.62535 7.8125 6.82406 7.8125 7.03126V10.1563H7.03125C6.82405 10.1563 6.62534 10.2386 6.47882 10.3851C6.33231 10.5316 6.25 10.7303 6.25 10.9375V14.0625H6.19766C5.59019 14.0633 5.00784 14.305 4.5783 14.7346C4.14876 15.1641 3.90708 15.7465 3.90625 16.3539V37.5C3.69905 37.5 3.50034 37.5823 3.35382 37.7288C3.20731 37.8753 3.125 38.0741 3.125 38.2813V43.75C3.125 43.9572 3.20731 44.1559 3.35382 44.3024C3.50034 44.449 3.69905 44.5313 3.90625 44.5313V44.5836C3.90687 45.1911 4.14848 45.7736 4.57807 46.2032C5.00766 46.6328 5.59013 46.8744 6.19766 46.875H46.0938C46.3009 46.875 46.4997 46.7927 46.6462 46.6462C46.7927 46.4997 46.875 46.301 46.875 46.0938V35.9375C46.875 35.7303 46.7927 35.5316 46.6462 35.3851C46.4997 35.2386 46.3009 35.1563 46.0938 35.1563ZM43.75 40.7813H45.3125V41.25H43.75V40.7813ZM43.75 39.2188V38.75H45.3125V39.2188H43.75ZM43.75 42.8125H45.3125V43.2813H43.75V42.8125ZM45.3125 37.1875H43.75V36.7188H45.3125V37.1875ZM44.5312 10.1563H43.75C43.5428 10.1563 43.3441 10.2386 43.1976 10.3851C43.0511 10.5316 42.9688 10.7303 42.9688 10.9375C42.9688 11.1447 43.0511 11.3434 43.1976 11.4899C43.3441 11.6365 43.5428 11.7188 43.75 11.7188H44.5312V12.5H43.75C43.5428 12.5 43.3441 12.5823 43.1976 12.7288C43.0511 12.8753 42.9688 13.0741 42.9688 13.2813C42.9688 13.4885 43.0511 13.6872 43.1976 13.8337C43.3441 13.9802 43.5428 14.0625 43.75 14.0625H44.5312V14.8438H43.75C43.5428 14.8438 43.3441 14.9261 43.1976 15.0726C43.0511 15.2191 42.9688 15.4178 42.9688 15.625C42.9688 15.8322 43.0511 16.0309 43.1976 16.1774C43.3441 16.324 43.5428 16.4063 43.75 16.4063H44.5312V17.1875H42.1875V9.37501H44.5312V10.1563ZM39.0625 8.43751C39.0625 8.27175 39.1283 8.11278 39.2456 7.99557C39.3628 7.87836 39.5217 7.81251 39.6875 7.81251H40C40.1658 7.81251 40.3247 7.87836 40.4419 7.99557C40.5592 8.11278 40.625 8.27175 40.625 8.43751V35.1563H39.0625V8.43751ZM26.9531 7.81251H28.5156V10.1563H26.9531V7.81251ZM25.3906 11.7188H30.0781V14.0625H25.3906V11.7188ZM24.6375 15.625H30.8313C32.5993 15.6269 34.2945 16.3301 35.5447 17.5803C36.7949 18.8305 37.4981 20.5257 37.5 22.2938V35.1563H17.9688V22.2938C17.9706 20.5257 18.6738 18.8305 19.924 17.5803C21.1743 16.3301 22.8694 15.6269 24.6375 15.625ZM12.5 7.81251V10.1563H11.3281C11.5353 10.1563 11.734 10.074 11.8806 9.92744C12.0271 9.78093 12.1094 9.58221 12.1094 9.37501V8.59376C12.1094 8.38656 12.0271 8.18785 11.8806 8.04133C11.734 7.89482 11.5353 7.81251 11.3281 7.81251H12.5ZM9.375 7.81251H10.5469C10.3397 7.81251 10.141 7.89482 9.99445 8.04133C9.84794 8.18785 9.76562 8.38656 9.76562 8.59376V9.37501C9.76562 9.58221 9.84794 9.78093 9.99445 9.92744C10.141 10.074 10.3397 10.1563 10.5469 10.1563H9.375V7.81251ZM7.8125 11.7188H14.0625V14.0625H7.8125V11.7188ZM5.46875 16.3539C5.46875 16.1606 5.54555 15.9752 5.68224 15.8385C5.81894 15.7018 6.00434 15.625 6.19766 15.625H15.6773C15.8707 15.625 16.0561 15.7018 16.1928 15.8385C16.3295 15.9752 16.4062 16.1606 16.4062 16.3539V35.1563H9.375C9.1678 35.1563 8.96909 35.2386 8.82257 35.3851C8.67606 35.5316 8.59375 35.7303 8.59375 35.9375V37.5H5.46875V16.3539ZM4.6875 39.0625H8.59375V42.9688H4.6875V39.0625ZM5.46875 44.5836V44.5313H8.59375V45.3125H6.19766C6.00434 45.3125 5.81894 45.2357 5.68224 45.099C5.54555 44.9623 5.46875 44.7769 5.46875 44.5836ZM10.1562 43.75V36.7188H42.1875V45.3125H10.1562V43.75ZM43.75 45.3125V44.8438H45.3125V45.3125H43.75Z" fill="#D0A659"/>
</svg>
