<svg width="50" height="50" viewBox="0 0 50 50" fill="none" xmlns="http://www.w3.org/2000/svg">
<path d="M49.2189 18.8696C49.2176 17.7601 48.8708 16.6784 48.2268 15.7749C47.5829 14.8713 46.6735 14.1907 45.6251 13.8274L31.4986 8.93447C27.4047 7.52313 22.9687 7.446 18.8283 8.71415L4.14075 13.2321C3.16599 13.5282 2.31269 14.1308 1.70752 14.9503C1.10235 15.7698 0.777562 16.7626 0.781378 17.7813C0.782562 18.8762 1.00221 19.9599 1.42747 20.9688C1.00565 21.5541 0.779519 22.2576 0.781378 22.979C0.781721 23.4723 0.928551 23.9544 1.20325 24.3642C1.47795 24.7739 1.86814 25.0929 2.32435 25.2806C1.7126 25.8982 1.26121 26.656 1.00953 27.4881C0.757842 28.3202 0.713498 29.2011 0.880364 30.0543C1.04723 30.9074 1.42024 31.7068 1.96687 32.3827C2.51351 33.0586 3.21718 33.5905 4.01653 33.9321L21.1259 41.2642C23.6943 42.3651 26.5774 42.4849 29.2283 41.6009L47.5095 35.5071C48.0073 35.3412 48.4403 35.0228 48.7471 34.5971C49.0538 34.1714 49.2189 33.66 49.2189 33.1353C49.2207 32.4139 48.9946 31.7103 48.5728 31.1251C48.998 30.1162 49.2177 29.0325 49.2189 27.9376C49.2209 27.0108 48.9503 26.1039 48.4406 25.3298C47.9309 24.5557 47.2047 23.9487 46.3525 23.5845C47.2158 23.1359 47.9395 22.4591 48.4449 21.6278C48.9503 20.7965 49.218 19.8425 49.2189 18.8696ZM47.6564 27.9376C47.6519 28.8595 47.4558 29.7705 47.0806 30.6126L31.4993 35.5704C30.7367 35.8131 29.9411 35.9367 29.1408 35.9368C28.8993 35.9342 28.6667 35.8456 28.4847 35.6869C28.3026 35.5283 28.1831 35.31 28.1474 35.0712C28.1118 34.8324 28.1624 34.5887 28.2902 34.3838C28.4179 34.1789 28.6145 34.0263 28.8447 33.9532L45.5415 28.8751L45.0868 27.3798L28.3884 32.4587C27.8001 32.6411 27.2965 33.028 26.9688 33.5495C26.6411 34.071 26.511 34.6926 26.6019 35.3018C26.6928 35.911 26.9988 36.4675 27.4645 36.8706C27.9302 37.2736 28.5248 37.4967 29.1408 37.4993C30.1023 37.4996 31.0581 37.3512 31.9743 37.0595L47.3775 32.1587C47.5574 32.4528 47.6539 32.7904 47.6564 33.1353C47.6564 33.3321 47.5945 33.524 47.4794 33.6838C47.3643 33.8435 47.2018 33.9629 47.015 34.0251L28.7337 40.1188C26.4455 40.8776 23.9589 40.7743 21.7415 39.8282L4.63216 32.4993C4.00439 32.2311 3.46127 31.7974 3.06078 31.2446C2.66029 30.6918 2.41748 30.0405 2.35827 29.3604C2.29907 28.6804 2.42571 27.997 2.72465 27.3832C3.02359 26.7695 3.48362 26.2485 4.0556 25.8759L20.7743 31.4478C23.4252 32.3318 26.3083 32.212 28.8767 31.111L44.2392 24.5274L45.4009 24.8853C46.055 25.0841 46.6276 25.4883 47.0338 26.0381C47.4401 26.5879 47.6584 27.254 47.6564 27.9376ZM45.3681 22.3431L28.2587 29.6751C26.0415 30.6219 23.5546 30.7253 21.2665 29.9657L2.98528 23.872C2.79797 23.8096 2.63511 23.6897 2.51994 23.5294C2.40477 23.369 2.34315 23.1764 2.34388 22.979C2.34687 22.634 2.44383 22.2964 2.62435 22.0024L18.0275 26.9032C18.9432 27.1948 19.8985 27.3432 20.8595 27.3431C21.4753 27.3401 22.0697 27.1168 22.5351 26.7135C23.0005 26.3103 23.3062 25.7539 23.3969 25.1448C23.4877 24.5357 23.3574 23.9143 23.0297 23.3929C22.702 22.8716 22.1985 22.4848 21.6103 22.3024L4.91341 17.2243L4.45872 18.7196L21.1556 23.7977C21.3852 23.8712 21.5811 24.024 21.7084 24.2287C21.8357 24.4333 21.8861 24.6766 21.8505 24.915C21.8149 25.1534 21.6956 25.3714 21.5141 25.53C21.3325 25.6885 21.1005 25.7774 20.8595 25.7806C20.0586 25.7806 19.2625 25.657 18.4993 25.4142L2.91966 20.4563C2.54444 19.6142 2.34837 18.7033 2.34388 17.7813C2.3413 17.097 2.55951 16.4301 2.96612 15.8796C3.37273 15.3292 3.94604 14.9246 4.60091 14.7259L19.2884 10.2071C23.1119 9.03081 27.2106 9.10223 30.9907 10.411L45.1189 15.3009C45.8388 15.5503 46.4664 16.0117 46.9193 16.6245C47.3722 17.2372 47.6292 17.9725 47.6565 18.734C47.6838 19.4954 47.4801 20.2473 47.0723 20.8908C46.6644 21.5344 46.0714 22.0396 45.3712 22.3399L45.3681 22.3431Z" fill="#D0A659"/>
</svg>
