<svg width="50" height="50" viewBox="0 0 50 50" fill="none" xmlns="http://www.w3.org/2000/svg">
<g clip-path="url(#clip0_170_1360)">
<path d="M25.7558 9.23425C29.7428 9.23425 33.3568 10.7849 35.9771 13.2919C38.6062 15.8075 40.2325 19.2821 40.2325 23.1191C40.2325 26.9561 38.6062 30.4306 35.9771 32.9462C33.3568 35.4532 29.7428 37.004 25.7558 37.004C21.769 37.004 18.1549 35.4532 15.5346 32.9462C12.9055 30.4306 11.2793 26.956 11.2793 23.1191C11.2793 19.2821 12.9055 15.8075 15.5346 13.2919C18.1549 10.7849 21.769 9.23425 25.7558 9.23425ZM34.9028 14.415C32.5663 12.1795 29.3327 10.7967 25.7558 10.7967C22.1789 10.7967 18.9453 12.1795 16.6089 14.415C14.2813 16.6419 12.8417 19.7192 12.8417 23.1191C12.8417 26.5189 14.2813 29.5962 16.6089 31.8231C18.9453 34.0587 22.1789 35.4414 25.7558 35.4414C29.3327 35.4414 32.5663 34.0587 34.9028 31.8231C37.2303 29.5962 38.67 26.5189 38.67 23.1191C38.67 19.7192 37.2303 16.6419 34.9028 14.415Z" fill="#D0A659"/>
<path d="M25.7561 15.7069C27.875 15.7069 29.798 16.5331 31.1941 17.8689C32.5992 19.2133 33.4683 21.0698 33.4683 23.1196C33.4683 25.1695 32.5992 27.0259 31.1941 28.3703C29.798 29.7061 27.875 30.5323 25.7561 30.5323C23.6372 30.5323 21.7142 29.7061 20.318 28.3703C18.913 27.0259 18.0439 25.1695 18.0439 23.1196C18.0439 21.0697 18.9131 19.2133 20.318 17.8689C21.7143 16.5331 23.6372 15.7069 25.7561 15.7069ZM30.12 18.992C29.0076 17.9277 27.4651 17.2693 25.7561 17.2693C24.0472 17.2693 22.5046 17.9277 21.3923 18.992C20.289 20.0477 19.6064 21.507 19.6064 23.1196C19.6064 24.7322 20.289 26.1915 21.3923 27.2473C22.5046 28.3116 24.0472 28.9699 25.7561 28.9699C27.4651 28.9699 29.0076 28.3116 30.12 27.2473C31.2233 26.1916 31.9058 24.7322 31.9058 23.1196C31.9058 21.507 31.2233 20.0477 30.12 18.992Z" fill="#D0A659"/>
<path d="M6.07727 -4.88278e-05H45.4348C46.3818 -4.88278e-05 47.2423 0.386809 47.8653 1.01001C48.4885 1.6332 48.8754 2.49354 48.8754 3.4405V42.7981C48.8754 43.745 48.4885 44.6054 47.8653 45.2286C47.2423 45.8518 46.3818 46.2386 45.4348 46.2386H6.07727C5.13031 46.2386 4.26997 45.8518 3.64677 45.2286C3.02358 44.6054 2.63672 43.745 2.63672 42.7981V37.8534V37.0722H3.41793H4.14921V27.9974H3.41793H2.63672V27.2162V19.0223V18.241H3.41793H4.14921V9.16627H3.41793H2.63672V8.38506V3.44043C2.63672 2.49347 3.02358 1.63313 3.64677 1.00993C4.26997 0.386736 5.13031 -4.88278e-05 6.07727 -4.88278e-05ZM45.4348 1.56238H6.07727C5.56169 1.56238 5.09225 1.77392 4.75152 2.11475C4.4108 2.45548 4.19926 2.92492 4.19926 3.4405V7.6039H4.61357C4.91427 7.6039 5.18798 7.7272 5.38671 7.92582C5.58522 8.12455 5.71175 8.40126 5.71175 8.70196V18.7055C5.71175 19.0047 5.58845 19.2784 5.38971 19.4785C5.18959 19.6773 4.91277 19.8036 4.61357 19.8036H4.19926V26.4351H4.61357C4.91427 26.4351 5.18798 26.5584 5.38671 26.757C5.58522 26.9557 5.71175 27.2324 5.71175 27.5331V37.5367C5.71175 37.836 5.58845 38.1097 5.38971 38.3097C5.18959 38.5084 4.91277 38.6347 4.61357 38.6347H4.19926V42.7981C4.19926 43.3137 4.4108 43.7831 4.75152 44.1239C5.09225 44.4646 5.56169 44.6761 6.07727 44.6761H45.4348C45.9504 44.6761 46.4199 44.4646 46.7606 44.1239C47.1014 43.7831 47.313 43.3137 47.313 42.7981V3.44054C47.313 2.92496 47.1014 2.45552 46.7606 2.11479C46.4199 1.77395 45.9504 1.56238 45.4348 1.56238Z" fill="#D0A659"/>
<path d="M2.22219 7.60339H4.61336C4.91406 7.60339 5.18776 7.72669 5.3865 7.92531C5.585 8.12405 5.71154 8.40076 5.71154 8.70145V18.7049C5.71154 19.0078 5.58823 19.2824 5.3895 19.4811C5.18927 19.6808 4.91337 19.8031 4.61336 19.8031H2.2222C1.92219 19.8031 1.64779 19.6792 1.44756 19.4795C1.24882 19.2808 1.12402 19.0078 1.12402 18.7049V8.70145C1.12402 8.40076 1.24744 8.12705 1.44594 7.92831C1.64456 7.72969 1.92138 7.60339 2.22219 7.60339ZM4.14899 9.16582H2.68656V18.2405H4.14899V9.16582Z" fill="#D0A659"/>
<path d="M2.22219 26.4354H4.61336C4.91406 26.4354 5.18776 26.5587 5.3865 26.7573C5.585 26.9561 5.71154 27.2328 5.71154 27.5335V37.5369C5.71154 37.8398 5.58823 38.1144 5.3895 38.3132C5.18927 38.5128 4.91337 38.6351 4.61336 38.6351H2.2222C1.92219 38.6351 1.64779 38.5112 1.44756 38.3116C1.24882 38.1128 1.12402 37.8398 1.12402 37.5369V27.5335C1.12402 27.2328 1.24744 26.9591 1.44594 26.7603C1.64456 26.5617 1.92138 26.4354 2.22219 26.4354ZM4.14899 27.9979H2.68656V37.0727H4.14899V27.9979Z" fill="#D0A659"/>
<path d="M26.5372 10.0157C26.5372 9.58433 26.1873 9.2345 25.7558 9.2345C25.3244 9.2345 24.9746 9.58433 24.9746 10.0157V13.2966C24.9746 13.7281 25.3244 14.0778 25.7558 14.0778C26.1873 14.0778 26.5372 13.7281 26.5372 13.2966V10.0157Z" fill="#D0A659"/>
<path d="M32.9822 12.1622C33.1979 11.7897 33.0708 11.3129 32.6983 11.0971C32.3259 10.8814 31.8489 11.0085 31.6333 11.381L29.9927 14.2223C29.777 14.5948 29.9042 15.0717 30.2766 15.2874C30.649 15.5031 31.126 15.3761 31.3417 15.0035L32.9822 12.1622Z" fill="#D0A659"/>
<path d="M37.4939 17.2429C37.8664 17.0271 37.9934 16.5503 37.7777 16.1779C37.5621 15.8053 37.0852 15.6783 36.7127 15.894L33.8713 17.5345C33.4989 17.7502 33.3718 18.227 33.5875 18.5996C33.8033 18.972 34.2801 19.0991 34.6525 18.8833L37.4939 17.2429Z" fill="#D0A659"/>
<path d="M38.859 23.9003C39.2905 23.9003 39.6402 23.5505 39.6402 23.119C39.6402 22.6876 39.2905 22.3378 38.859 22.3378H35.5781C35.1466 22.3378 34.7969 22.6876 34.7969 23.119C34.7969 23.5505 35.1466 23.9003 35.5781 23.9003H38.859Z" fill="#D0A659"/>
<path d="M36.7127 30.3463C37.0851 30.562 37.562 30.4349 37.7778 30.0625C37.9935 29.69 37.8664 29.2131 37.4939 28.9974L34.6526 27.3569C34.2801 27.1412 33.8032 27.2683 33.5875 27.6407C33.3718 28.0132 33.4988 28.4901 33.8713 28.7058L36.7127 30.3463Z" fill="#D0A659"/>
<path d="M31.6333 34.8572C31.849 35.2296 32.3258 35.3567 32.6983 35.1409C33.0708 34.9252 33.1979 34.4484 32.9821 34.0758L31.3417 31.2345C31.1259 30.862 30.6491 30.7349 30.2766 30.9506C29.9041 31.1664 29.7771 31.6433 29.9928 32.0157L31.6333 34.8572Z" fill="#D0A659"/>
<path d="M24.9746 36.2223C24.9746 36.6538 25.3244 37.0035 25.7559 37.0035C26.1873 37.0035 26.5372 36.6538 26.5372 36.2223V32.9414C26.5372 32.5099 26.1873 32.16 25.7559 32.16C25.3244 32.16 24.9746 32.5099 24.9746 32.9414V36.2223Z" fill="#D0A659"/>
<path d="M18.5289 34.0759C18.3132 34.4483 18.4403 34.9252 18.8127 35.1409C19.1852 35.3566 19.6621 35.2296 19.8778 34.8571L21.5183 32.0157C21.734 31.6433 21.6069 31.1663 21.2345 30.9507C20.862 30.735 20.3851 30.862 20.1694 31.2345L18.5289 34.0759Z" fill="#D0A659"/>
<path d="M14.0178 28.9974C13.6453 29.2132 13.5182 29.69 13.734 30.0624C13.9497 30.435 14.4265 30.562 14.7991 30.3463L17.6405 28.7058C18.0129 28.4901 18.14 28.0133 17.9243 27.6407C17.7085 27.2683 17.2317 27.1411 16.8592 27.357L14.0178 28.9974Z" fill="#D0A659"/>
<path d="M12.6523 22.338C12.2209 22.338 11.8711 22.6878 11.8711 23.1193C11.8711 23.5507 12.2209 23.9006 12.6523 23.9006H15.9332C16.3647 23.9006 16.7146 23.5507 16.7146 23.1193C16.7146 22.6878 16.3647 22.338 15.9332 22.338H12.6523Z" fill="#D0A659"/>
<path d="M14.799 15.892C14.4266 15.6763 13.9497 15.8034 13.734 16.1759C13.5183 16.5483 13.6453 17.0253 14.0178 17.241L16.8592 18.8815C17.2316 19.0972 17.7086 18.9701 17.9243 18.5976C18.1399 18.2252 18.013 17.7482 17.6404 17.5325L14.799 15.892Z" fill="#D0A659"/>
<path d="M19.8788 11.381C19.663 11.0084 19.1862 10.8814 18.8137 11.0971C18.4412 11.3128 18.3142 11.7898 18.5299 12.1622L20.1704 15.0036C20.3861 15.376 20.8629 15.5031 21.2355 15.2874C21.6079 15.0716 21.735 14.5948 21.5192 14.2223L19.8788 11.381Z" fill="#D0A659"/>
<path d="M26.5372 16.5738C26.5372 16.1423 26.1873 15.7926 25.7558 15.7926C25.3244 15.7926 24.9746 16.1423 24.9746 16.5738V18.2127C24.9746 18.6442 25.3244 18.9939 25.7558 18.9939C26.1873 18.9939 26.5372 18.6442 26.5372 18.2127V16.5738Z" fill="#D0A659"/>
<path d="M29.7035 17.8393C29.9176 17.4668 29.7892 16.9913 29.4166 16.7773C29.0442 16.5632 28.5686 16.6916 28.3547 17.0642L27.5352 18.4834C27.3212 18.8559 27.4496 19.3314 27.822 19.5455C28.1946 19.7595 28.67 19.6311 28.8841 19.2587L29.7035 17.8393Z" fill="#D0A659"/>
<path d="M31.8115 20.5207C32.184 20.3067 32.3123 19.8311 32.0984 19.4587C31.8843 19.0862 31.4087 18.9577 31.0363 19.1718L29.617 19.9912C29.2445 20.2053 29.1161 20.6808 29.3302 21.0533C29.5441 21.4257 30.0197 21.5542 30.3921 21.3401L31.8115 20.5207Z" fill="#D0A659"/>
<path d="M32.301 23.9002C32.7325 23.9002 33.0822 23.5505 33.0822 23.119C33.0822 22.6875 32.7325 22.3378 32.301 22.3378H30.6621C30.2306 22.3378 29.8809 22.6875 29.8809 23.119C29.8809 23.5505 30.2306 23.9002 30.6621 23.9002H32.301Z" fill="#D0A659"/>
<path d="M31.0337 27.0665C31.4063 27.2823 31.8831 27.1552 32.0988 26.7827C32.3146 26.4102 32.1875 25.9333 31.8151 25.7176L30.3958 24.8981C30.0232 24.6824 29.5464 24.8096 29.3307 25.182C29.1149 25.5544 29.242 26.0314 29.6145 26.2471L31.0337 27.0665Z" fill="#D0A659"/>
<path d="M28.3543 29.1792C28.57 29.5516 29.0468 29.6788 29.4193 29.463C29.7918 29.2473 29.9189 28.7704 29.7031 28.3979L28.8837 26.9786C28.6679 26.6061 28.1911 26.479 27.8186 26.6948C27.4461 26.9105 27.3191 27.3874 27.5348 27.7599L28.3543 29.1792Z" fill="#D0A659"/>
<path d="M24.9746 29.6641C24.9746 30.0955 25.3243 30.4454 25.7558 30.4454C26.1873 30.4454 26.537 30.0955 26.537 29.6641V28.0252C26.537 27.5937 26.1873 27.244 25.7558 27.244C25.3243 27.244 24.9746 27.5937 24.9746 28.0252V29.6641Z" fill="#D0A659"/>
<path d="M21.8087 28.3995C21.5946 28.7719 21.723 29.2475 22.0955 29.4615C22.468 29.6755 22.9435 29.5472 23.1575 29.1746L23.977 27.7553C24.191 27.3829 24.0626 26.9073 23.6901 26.6932C23.3176 26.4793 22.8421 26.6077 22.6281 26.9801L21.8087 28.3995Z" fill="#D0A659"/>
<path d="M19.6965 25.7176C19.324 25.9334 19.1969 26.4102 19.4127 26.7826C19.6284 27.1552 20.1053 27.2822 20.4778 27.0665L21.8971 26.2471C22.2695 26.0313 22.3967 25.5545 22.1808 25.182C21.9652 24.8095 21.4883 24.6825 21.1158 24.8982L19.6965 25.7176Z" fill="#D0A659"/>
<path d="M19.2099 22.338C18.7785 22.338 18.4287 22.6878 18.4287 23.1193C18.4287 23.5507 18.7785 23.9006 19.2099 23.9006H20.8488C21.2803 23.9006 21.63 23.5507 21.63 23.1193C21.63 22.6878 21.2803 22.338 20.8488 22.338H19.2099Z" fill="#D0A659"/>
<path d="M20.4751 19.1718C20.1027 18.9578 19.6271 19.0861 19.4132 19.4587C19.1991 19.8311 19.3275 20.3067 19.7 20.5206L21.1193 21.3401C21.4917 21.5541 21.9673 21.4257 22.1814 21.0533C22.3953 20.6807 22.267 20.2053 21.8945 19.9912L20.4751 19.1718Z" fill="#D0A659"/>
<path d="M23.1576 17.0641C22.9435 16.6916 22.4679 16.5633 22.0955 16.7772C21.7231 16.9913 21.5946 17.4669 21.8086 17.8393L22.628 19.2586C22.8421 19.6311 23.3177 19.7595 23.6901 19.5454C24.0626 19.3315 24.191 18.8559 23.977 18.4835L23.1576 17.0641Z" fill="#D0A659"/>
<path d="M7.94966 44.6757H18.1856C18.617 44.6757 18.9668 45.0255 18.9668 45.457C18.9668 45.6457 18.8998 45.8189 18.7884 45.954L16.2766 49.6548C16.1246 49.8786 15.8793 50.0009 15.6276 49.9995H10.5002C10.2051 49.9995 9.94808 49.8359 9.81521 49.5942L7.30363 45.8938C7.06141 45.5368 7.15161 45.0528 7.50859 44.8105C7.64389 44.7187 7.79764 44.6751 7.94966 44.6757ZM16.7152 46.2382H9.41773L10.9101 48.4371H15.2228L16.7152 46.2382Z" fill="#D0A659"/>
<path d="M31.8168 44.6757H42.0527C42.4842 44.6757 42.8341 45.0255 42.8341 45.457C42.8341 45.6457 42.7671 45.8189 42.6555 45.954L40.1438 49.6548C39.9919 49.8786 39.7465 50.0009 39.4948 49.9995H34.3675C34.0723 49.9995 33.8153 49.8359 33.6824 49.5942L31.1709 45.8938C30.9285 45.5368 31.0188 45.0528 31.3758 44.8105C31.511 44.7187 31.6649 44.6751 31.8168 44.6757ZM40.5824 46.2382H33.2849L34.7773 48.4371H39.0899L40.5824 46.2382Z" fill="#D0A659"/>
</g>
<defs>
<clipPath id="clip0_170_1360">
<rect width="50" height="50" fill="white"/>
</clipPath>
</defs>
</svg>
