<svg width="50" height="50" viewBox="0 0 50 50" fill="none" xmlns="http://www.w3.org/2000/svg">
<path d="M15.4615 32.3374C14.9121 33.0007 15.0057 33.9874 15.669 34.5367C16.3322 35.084 17.3129 34.9985 17.8703 34.3312C21.7196 29.6844 28.2788 29.6844 32.1281 34.3312C32.4374 34.7035 32.885 34.8968 33.3326 34.8968C33.6866 34.8968 34.0365 34.7788 34.3295 34.5367C34.9927 33.9874 35.0863 33.0007 34.537 32.3374C29.4751 26.2339 20.5233 26.2339 15.4615 32.3374Z" fill="#D0A659"/>
<path d="M24.9997 17.1875C18.648 17.1875 12.6828 19.9626 8.20687 25.0041C7.63314 25.649 7.69011 26.6378 8.33708 27.2095C8.97998 27.7812 9.96468 27.7242 10.5425 27.0793C14.4203 22.7153 19.5513 20.3125 24.9997 20.3125C30.4481 20.3125 35.5791 22.7153 39.4569 27.0793C39.7661 27.4272 40.1934 27.6042 40.6247 27.6042C40.995 27.6042 41.3652 27.474 41.6623 27.2095C42.3093 26.6378 42.3662 25.649 41.7925 25.0041C37.3166 19.9626 31.3514 17.1875 24.9997 17.1875Z" fill="#D0A659"/>
<path d="M49.0722 17.6968C42.6431 10.6513 34.0982 6.77148 24.9999 6.77148C15.9016 6.77148 7.35666 10.6513 0.927628 17.6968C0.34576 18.3356 0.394588 19.3244 1.02935 19.9042C1.67633 20.4922 2.65696 20.4413 3.23883 19.8045C9.06565 13.4141 16.7927 9.89648 24.9999 9.89648C33.2071 9.89648 40.9341 13.4141 46.761 19.8045C47.0702 20.1423 47.4934 20.3132 47.9166 20.3132C48.2909 20.3132 48.6693 20.1789 48.9704 19.9042C49.6052 19.3244 49.654 18.3356 49.0722 17.6968Z" fill="#D0A659"/>
<path d="M25 43.2305C25.8629 43.2305 26.5625 42.5309 26.5625 41.668C26.5625 40.805 25.8629 40.1055 25 40.1055C24.1371 40.1055 23.4375 40.805 23.4375 41.668C23.4375 42.5309 24.1371 43.2305 25 43.2305Z" fill="#D0A659"/>
</svg>
