<svg width="25" height="25" viewBox="0 0 25 25" fill="none" xmlns="http://www.w3.org/2000/svg">
<g clip-path="url(#clip0_191_43)">
<circle opacity="0.8" cx="9.64286" cy="9.64286" r="9.64286" fill="#D0A659"/>
<g clip-path="url(#clip1_191_43)">
<path d="M19.7896 16.367C18.4439 14.7423 16.7431 13.8475 15.0002 13.8475C13.2573 13.8475 11.5564 14.7423 10.2109 16.367C9.00133 17.8273 8.2793 19.6678 8.2793 21.2902C8.2793 22.0783 8.52023 22.6786 8.99539 23.0745C9.46438 23.4653 10.0836 23.5975 10.7743 23.5975C11.5094 23.5975 12.3255 23.4478 13.1275 23.3007C13.8282 23.1721 14.4901 23.0507 15.0002 23.0507C15.4405 23.0507 16.0614 23.1659 16.7185 23.2879C18.2543 23.5731 19.9951 23.8962 21.0007 23.0601C21.4788 22.6627 21.7211 22.0672 21.7211 21.2902C21.7212 19.6678 20.9991 17.8273 19.7896 16.367ZM20.2515 22.159C19.6686 22.6438 18.1514 22.3621 16.9323 22.1358C16.2206 22.0036 15.5483 21.8788 15.0002 21.8788C14.3834 21.8788 13.6706 22.0096 12.9159 22.1481C11.7468 22.3625 10.2917 22.6295 9.74543 22.1743C9.67262 22.1136 9.45105 21.929 9.45105 21.2902C9.45105 19.9524 10.088 18.3523 11.1133 17.1144C12.2322 15.7634 13.6126 15.0193 15.0001 15.0193C16.3876 15.0193 17.768 15.7634 18.887 17.1144C19.9123 18.3523 20.5492 19.9524 20.5492 21.2902C20.5493 21.9115 20.3252 22.0978 20.2515 22.159Z" fill="white"/>
<path d="M19.9273 7.54477C19.435 6.81887 18.73 6.40262 17.993 6.40262C17.2561 6.40262 16.5511 6.81895 16.0588 7.54477C15.6065 8.2116 15.3574 9.08731 15.3574 10.0106C15.3574 10.9339 15.6065 11.8096 16.0588 12.4764C16.5511 13.2023 17.2561 13.6186 17.993 13.6186C18.73 13.6186 19.435 13.2023 19.9273 12.4764C20.3796 11.8096 20.6287 10.9339 20.6287 10.0106C20.6287 9.08731 20.3796 8.21156 19.9273 7.54477ZM18.9575 11.8186C18.7984 12.0532 18.4615 12.4468 17.993 12.4468C17.5246 12.4468 17.1877 12.0532 17.0286 11.8186C16.7113 11.3507 16.5293 10.6917 16.5293 10.0106C16.5293 9.32942 16.7113 8.67043 17.0286 8.20254C17.1877 7.96797 17.5246 7.57442 17.993 7.57442C18.4615 7.57442 18.7984 7.96793 18.9575 8.20254C19.2748 8.67043 19.4568 9.32945 19.4568 10.0106C19.4568 10.6917 19.2748 11.3507 18.9575 11.8186Z" fill="white"/>
<path d="M13.942 7.54471C13.4496 6.81882 12.7446 6.40253 12.0077 6.40253C11.2707 6.40253 10.5657 6.81885 10.0734 7.54471C9.62117 8.21155 9.37207 9.08725 9.37207 10.0105C9.37207 10.9338 9.62113 11.8095 10.0734 12.4764C10.5658 13.2023 11.2707 13.6186 12.0077 13.6186C12.7446 13.6186 13.4496 13.2023 13.942 12.4764C14.3942 11.8095 14.6433 10.9339 14.6433 10.0105C14.6433 9.08725 14.3942 8.21151 13.942 7.54471ZM12.9721 11.8186C12.813 12.0532 12.4761 12.4467 12.0077 12.4467C11.5392 12.4467 11.2023 12.0532 11.0432 11.8186C10.7259 11.3507 10.5439 10.6917 10.5439 10.0106C10.5439 9.3294 10.7259 8.67042 11.0432 8.20253C11.2023 7.96796 11.5392 7.5744 12.0077 7.5744C12.4761 7.5744 12.813 7.96792 12.9721 8.20253C13.2894 8.67042 13.4714 9.32944 13.4714 10.0106C13.4714 10.6917 13.2894 11.3507 12.9721 11.8186Z" fill="white"/>
<path d="M24.8836 13.2083C24.6851 12.5332 24.2597 12.0426 23.6857 11.827C23.2238 11.6535 22.7025 11.6829 22.2176 11.9099C21.5495 12.2225 21.0033 12.8681 20.7193 13.6811C20.4873 14.3455 20.4583 15.0477 20.6379 15.6586C20.8364 16.3337 21.2618 16.8243 21.8358 17.0399C22.0344 17.1145 22.244 17.1516 22.457 17.1516C22.7393 17.1516 23.0275 17.0864 23.3039 16.957C23.9721 16.6444 24.5182 15.9988 24.8022 15.1858V15.1858C25.0342 14.5214 25.0632 13.8192 24.8836 13.2083ZM23.6959 14.7993C23.5179 15.3087 23.1857 15.7186 22.8072 15.8957C22.668 15.9608 22.4581 16.0218 22.2478 15.9429C21.7405 15.7523 21.5431 14.8759 21.8256 14.0676C22.0035 13.5582 22.3358 13.1483 22.7143 12.9712C22.8065 12.928 22.9299 12.8867 23.0638 12.8867C23.1319 12.8867 23.2028 12.8974 23.2736 12.924C23.7809 13.1146 23.9783 13.9909 23.6959 14.7993Z" fill="white"/>
<path d="M9.28071 13.6811C8.99669 12.868 8.45056 12.2225 7.78243 11.9098C7.29755 11.6829 6.77614 11.6535 6.31431 11.827C5.74032 12.0426 5.31489 12.5332 5.11642 13.2083C4.93685 13.8191 4.96579 14.5214 5.19786 15.1857V15.1857C5.48192 15.9988 6.02802 16.6443 6.69614 16.957C6.97255 17.0863 7.26079 17.1515 7.5431 17.1515C7.75606 17.1515 7.96567 17.1144 8.16427 17.0398C8.73833 16.8242 9.16372 16.3336 9.3622 15.6585C9.54169 15.0477 9.51274 14.3455 9.28071 13.6811ZM7.75216 15.9429C7.54196 16.0218 7.33196 15.9607 7.19282 15.8957C6.81435 15.7186 6.48208 15.3087 6.30415 14.7993V14.7993C6.02177 13.9909 6.21907 13.1147 6.72642 12.924C6.93657 12.8451 7.14661 12.9061 7.28579 12.9712C7.66431 13.1484 7.99653 13.5582 8.17446 14.0676C8.45685 14.876 8.2595 15.7523 7.75216 15.9429Z" fill="white"/>
</g>
</g>
<defs>
<clipPath id="clip0_191_43">
<rect width="25" height="25" fill="white"/>
</clipPath>
<clipPath id="clip1_191_43">
<rect width="20" height="20" fill="white" transform="translate(5 5)"/>
</clipPath>
</defs>
</svg>
