<svg width="25" height="25" viewBox="0 0 25 25" fill="none" xmlns="http://www.w3.org/2000/svg">
<g clip-path="url(#clip0_170_1163)">
<circle opacity="0.8" cx="9.64286" cy="13.3577" r="9.64286" fill="#D0A659"/>
<g opacity="0.8">
<path d="M15.7141 17.1275C13.3618 17.1275 11.4473 15.213 11.4473 12.8606C11.4473 10.5083 13.3618 8.59375 15.7141 8.59375C18.0665 8.59375 19.981 10.5083 19.981 12.8606C19.981 15.213 18.0665 17.1275 15.7141 17.1275ZM15.7141 9.70685C13.9777 9.70685 12.5604 11.1242 12.5604 12.8606C12.5604 14.597 13.9777 16.0144 15.7141 16.0144C17.4506 16.0144 18.8679 14.597 18.8679 12.8606C18.8679 11.1242 17.4506 9.70685 15.7141 9.70685Z" fill="white"/>
<path d="M22.0884 24.5497C21.7841 24.5497 21.5318 24.2974 21.5318 23.9932C21.5318 21.4331 18.9198 19.3553 15.7141 19.3553C12.5084 19.3553 9.8963 21.4331 9.8963 23.9932C9.8963 24.2974 9.644 24.5497 9.33975 24.5497C9.0355 24.5497 8.7832 24.2974 8.7832 23.9932C8.7832 20.8246 11.8924 18.2422 15.7141 18.2422C19.5357 18.2422 22.6449 20.8246 22.6449 23.9932C22.6449 24.2974 22.3926 24.5497 22.0884 24.5497Z" fill="white"/>
</g>
</g>
<defs>
<clipPath id="clip0_170_1163">
<rect width="25" height="25" fill="white"/>
</clipPath>
</defs>
</svg>
