<svg width="50" height="50" viewBox="0 0 50 50" fill="none" xmlns="http://www.w3.org/2000/svg">
<path d="M47.1246 29.3405H46.3417V29.2659C46.3392 27.7652 45.8313 26.3098 44.9009 25.1377C43.9706 23.9655 42.6729 23.1461 41.2202 22.8134V10.1559C41.2191 9.31926 40.8887 8.51715 40.3014 7.92553C39.714 7.33391 38.9178 7.00107 38.0872 7H12.9128C12.0822 7.00107 11.286 7.33391 10.6986 7.92553C10.1113 8.51715 9.78087 9.31926 9.77982 10.1559V22.8134C8.32708 23.1461 7.0294 23.9655 6.09906 25.1377C5.16872 26.3098 4.66077 27.7652 4.65831 29.2659V29.3405H3.87543C3.64329 29.3406 3.4207 29.4336 3.25655 29.5989C3.09241 29.7643 3.00013 29.9885 3 30.2223V37.0462C3.00013 37.28 3.09241 37.5042 3.25655 37.6696C3.4207 37.8349 3.64329 37.9278 3.87543 37.928H5.37166V43.1182C5.37159 43.234 5.39419 43.3487 5.43816 43.4557C5.48214 43.5627 5.54662 43.66 5.62792 43.7419C5.70922 43.8238 5.80576 43.8887 5.912 43.933C6.01824 43.9773 6.13211 44.0001 6.24709 44H9.86636C10.0985 44 10.3212 43.9071 10.4854 43.7417C10.6496 43.5763 10.7418 43.352 10.7418 43.1182V37.928H39.7435V43.1182C39.7435 43.352 39.8357 43.5763 39.9999 43.7417C40.164 43.9071 40.3867 44 40.6189 44H44.7529C44.8679 44.0001 44.9818 43.9773 45.088 43.933C45.1943 43.8887 45.2908 43.8238 45.3721 43.7419C45.4534 43.66 45.5179 43.5627 45.5618 43.4557C45.6058 43.3487 45.6284 43.234 45.6283 43.1182V37.928H47.1246C47.3567 37.9278 47.5793 37.8349 47.7435 37.6696C47.9076 37.5042 47.9999 37.28 48 37.0462V30.2223C47.9999 29.9885 47.9076 29.7643 47.7435 29.5989C47.5793 29.4336 47.3567 29.3406 47.1246 29.3405ZM11.5307 10.1559C11.5312 9.78685 11.677 9.43302 11.9361 9.17203C12.1952 8.91105 12.5464 8.76419 12.9128 8.76366H38.0872C38.4536 8.76419 38.8048 8.91105 39.0639 9.17203C39.323 9.43302 39.4688 9.78685 39.4693 10.1559V22.6436H33.3949V14.8201C33.3949 14.7042 33.3723 14.5895 33.3284 14.4825C33.2844 14.3755 33.2199 14.2783 33.1386 14.1964C33.0573 14.1145 32.9608 14.0495 32.8545 14.0052C32.7483 13.9609 32.6344 13.9382 32.5194 13.9382H18.4806C18.3656 13.9382 18.2517 13.9609 18.1455 14.0052C18.0392 14.0495 17.9427 14.1145 17.8614 14.1964C17.7801 14.2783 17.7156 14.3755 17.6716 14.4825C17.6277 14.5895 17.6051 14.7042 17.6051 14.8201V22.6436H11.5307V10.1559ZM31.644 22.6436H19.356V15.7019H31.644V22.6436ZM6.40917 29.2659C6.41009 27.9779 6.91836 26.7428 7.82239 25.8319C8.72642 24.921 9.95234 24.4086 11.231 24.4073H39.769C41.0473 24.4086 42.2729 24.9207 43.1769 25.8312C44.0809 26.7417 44.5894 27.9762 44.5908 29.2639V29.3385H6.40917V29.2659ZM8.99193 42.2358H7.12252V37.928H8.99193V42.2358ZM43.8785 42.2358H41.4943V37.928H43.8775L43.8785 42.2358ZM46.2502 36.1643H4.75086V31.1041H46.2491L46.2502 36.1643Z" fill="#D0A659"/>
</svg>
