<svg width="50" height="50" viewBox="0 0 50 50" fill="none" xmlns="http://www.w3.org/2000/svg">
<path d="M48.7948 2.92225V2.12305C48.7945 1.85792 48.6891 1.60373 48.5016 1.41626C48.3141 1.22879 48.0599 1.12334 47.7948 1.12305H2.20541C1.94028 1.12334 1.6861 1.22879 1.49862 1.41626C1.31115 1.60373 1.2057 1.85792 1.20541 2.12305V2.92225C1.20161 2.92225 1.20751 46.6573 1.20541 46.6586C1.20641 46.6616 1.20541 47.7086 1.20541 47.7124C1.20567 47.9776 1.31112 48.2318 1.4986 48.4193C1.68607 48.6067 1.94027 48.7122 2.20541 48.7124C13.5678 48.7019 36.4354 48.7203 47.7954 48.7124C48.0605 48.7122 48.3147 48.6067 48.5022 48.4192C48.6897 48.2318 48.7951 47.9776 48.7954 47.7124C48.7963 47.7105 48.7947 2.92435 48.7948 2.92225ZM20.4579 14.9667C20.4731 14.9693 20.4886 14.9693 20.5037 14.9667C20.9762 14.9732 21.4273 15.1652 21.7594 15.5014C22.0915 15.8375 22.278 16.2909 22.2787 16.7634L22.2793 34.5208H18.683V16.7634C18.6836 16.2909 18.8702 15.8376 19.2023 15.5014C19.5344 15.1652 19.9854 14.9732 20.4579 14.9667ZM2.20511 10.4805V5.23155H24.5001V10.4805H2.20511ZM13.3301 14.9667C13.3452 14.9693 13.3607 14.9693 13.3758 14.9667C13.8483 14.9731 14.2994 15.1651 14.6315 15.5013C14.9637 15.8375 15.1502 16.2909 15.1508 16.7634L15.1515 34.5208H11.5549V16.7634C11.5556 16.2908 11.7421 15.8375 12.0743 15.5013C12.4065 15.1651 12.8576 14.9731 13.3301 14.9667ZM6.20201 14.9667C6.21717 14.9693 6.23265 14.9693 6.24781 14.9667C6.72033 14.9732 7.17137 15.1652 7.50349 15.5014C7.8356 15.8375 8.02214 16.2909 8.02281 16.7634L8.02341 34.5208H4.42681V16.7634C4.42748 16.2909 4.61402 15.8375 4.94613 15.5014C5.27825 15.1652 5.72929 14.9732 6.20181 14.9667H6.20201ZM29.631 28.6896C29.6315 28.3094 29.7827 27.945 30.0515 27.6761C30.3204 27.4073 30.6849 27.2561 31.0651 27.2556H42.2301C42.4194 27.2541 42.6072 27.29 42.7826 27.3613C42.958 27.4327 43.1175 27.5381 43.2519 27.6714C43.3863 27.8047 43.4931 27.9634 43.5659 28.1381C43.6387 28.3129 43.6762 28.5004 43.6762 28.6897C43.6762 28.879 43.6387 29.0665 43.5659 29.2413C43.4931 29.416 43.3863 29.5747 43.2519 29.708C43.1175 29.8413 42.958 29.9467 42.7826 30.018C42.6072 30.0894 42.4194 30.1253 42.2301 30.1237H31.0651C30.6849 30.1233 30.3204 29.9721 30.0515 29.7032C29.7827 29.4344 29.6314 29.0699 29.631 28.6896ZM29.631 24.8216C29.6314 24.4414 29.7827 24.0769 30.0515 23.8081C30.3204 23.5392 30.6849 23.388 31.0651 23.3875H42.2301C42.4194 23.386 42.6072 23.4219 42.7826 23.4933C42.958 23.5646 43.1175 23.67 43.2519 23.8033C43.3863 23.9366 43.4931 24.0953 43.5659 24.27C43.6387 24.4448 43.6762 24.6323 43.6762 24.8216C43.6762 25.0109 43.6387 25.1984 43.5659 25.3732C43.4931 25.5479 43.3863 25.7066 43.2519 25.8399C43.1175 25.9732 42.958 26.0786 42.7826 26.1499C42.6072 26.2213 42.4194 26.2572 42.2301 26.2556H31.0651C30.6849 26.2552 30.3204 26.104 30.0515 25.8352C29.7827 25.5663 29.6315 25.2018 29.631 24.8216ZM29.631 20.9535C29.6315 20.5734 29.7827 20.2089 30.0516 19.9401C30.3204 19.6713 30.6849 19.5201 31.0651 19.5196H42.2301C42.4194 19.5181 42.6072 19.554 42.7826 19.6254C42.958 19.6967 43.1175 19.8021 43.2519 19.9354C43.3863 20.0687 43.4931 20.2274 43.5659 20.4021C43.6387 20.5769 43.6762 20.7644 43.6762 20.9537C43.6762 21.143 43.6387 21.3305 43.5659 21.5053C43.4931 21.68 43.3863 21.8387 43.2519 21.972C43.1175 22.1053 42.958 22.2107 42.7826 22.282C42.6072 22.3534 42.4194 22.3893 42.2301 22.3877H31.0651C30.6849 22.3873 30.3203 22.2361 30.0515 21.9672C29.7826 21.6983 29.6314 21.3338 29.631 20.9535ZM47.7948 31.1235V38.9178H25.5001V31.1237L47.7948 31.1235ZM25.5001 39.918H47.7948V47.7123H25.5001V39.918ZM47.7951 5.23155V30.1237H44.1951C44.9824 29.0932 44.7368 27.5081 43.7051 26.7556C44.976 25.8103 44.9751 23.8324 43.7051 22.8875C45.5342 21.4891 44.5644 18.5334 42.2296 18.5194H31.0651C28.7341 18.532 27.7579 21.4882 29.5896 22.8875C28.3187 23.8329 28.3196 25.8107 29.5896 26.7556C28.558 27.5083 28.3129 29.0934 29.0996 30.1237H25.5001V5.23155H47.7951ZM2.20541 2.12305H47.7948V4.23155H2.20541V2.12305ZM2.20541 44.6038V11.4805H5.72541V14.0112C5.08109 14.1291 4.49841 14.4689 4.07862 14.9717C3.65882 15.4745 3.42844 16.1084 3.42751 16.7634V34.5208C3.4278 34.786 3.53325 35.0402 3.72072 35.2276C3.9082 35.4151 4.16238 35.5206 4.42751 35.5208H8.02261C8.28774 35.5206 8.54192 35.4151 8.7294 35.2276C8.91687 35.0402 9.02232 34.786 9.02261 34.5208V16.7634C9.02168 16.1084 8.7913 15.4745 8.3715 14.9717C7.9517 14.4689 7.36903 14.1291 6.72471 14.0112V11.4805H12.8527V14.0112C12.2084 14.1291 11.6258 14.4689 11.206 14.9717C10.7862 15.4745 10.5558 16.1085 10.5549 16.7634V34.5208C10.5552 34.786 10.6607 35.0402 10.8481 35.2276C11.0356 35.4151 11.2898 35.5206 11.5549 35.5208H15.1506C15.4157 35.5206 15.6699 35.4151 15.8574 35.2277C16.0449 35.0402 16.1503 34.786 16.1506 34.5208V16.7634C16.1497 16.1084 15.9193 15.4745 15.4995 14.9717C15.0797 14.4689 14.497 14.1291 13.8527 14.0112V11.4805H19.9808V14.0112C19.3365 14.1291 18.7539 14.4689 18.3341 14.9717C17.9143 15.4745 17.6839 16.1085 17.683 16.7634V34.5208C17.6833 34.786 17.7887 35.0402 17.9762 35.2277C18.1637 35.4151 18.4179 35.5206 18.683 35.5208H22.2787C22.5438 35.5206 22.798 35.4151 22.9855 35.2276C23.173 35.0402 23.2784 34.786 23.2787 34.5208V16.7634C23.2778 16.1084 23.0474 15.4745 22.6276 14.9717C22.2078 14.4689 21.6251 14.1291 20.9808 14.0112V11.4805H24.5001V44.6038H23.523V41.7358C23.5227 41.4707 23.4173 41.2165 23.2298 41.0291C23.0423 40.8416 22.7881 40.7361 22.523 40.7358H14.8677C14.6026 40.7361 14.3484 40.8416 14.1609 41.0291C13.9735 41.2165 13.868 41.4707 13.8677 41.7358V44.6038H12.8377V41.7358C12.8374 41.4707 12.732 41.2165 12.5445 41.0291C12.357 40.8416 12.1028 40.7361 11.8377 40.7358H4.18261C3.91748 40.7361 3.6633 40.8416 3.47582 41.0291C3.28835 41.2165 3.1829 41.4707 3.18261 41.7358V44.6038H2.20541ZM22.5233 44.6038H14.8677V41.7358H22.523L22.5233 44.6038ZM11.8381 44.6038H4.18261V41.7358H11.8378L11.8381 44.6038ZM2.20571 45.6038H24.5001V47.7123H2.20541L2.20571 45.6038Z" fill="#D0A659"/>
<path d="M36.6472 36.8762C37.1461 36.8756 37.6243 36.6772 37.977 36.3244C38.3297 35.9717 38.5281 35.4935 38.5287 34.9947C38.4253 32.4985 34.8687 32.4993 34.7656 34.9947C34.7662 35.4935 34.9646 35.9717 35.3174 36.3245C35.6701 36.6772 36.1484 36.8756 36.6472 36.8762ZM36.6472 34.1131C36.8809 34.1133 37.105 34.2063 37.2703 34.3716C37.4355 34.5369 37.5285 34.7609 37.5287 34.9947C37.4824 36.1633 35.8117 36.1629 35.7656 34.9947C35.7659 34.7609 35.8589 34.5368 36.0241 34.3716C36.1894 34.2063 36.4135 34.1133 36.6472 34.1131Z" fill="#D0A659"/>
<path d="M36.6472 42.4199C36.1484 42.4205 35.6701 42.6189 35.3174 42.9716C34.9646 43.3243 34.7662 43.8026 34.7656 44.3014C34.869 46.7975 38.4256 46.7968 38.5287 44.3014C38.5282 43.8026 38.3298 43.3243 37.977 42.9716C37.6243 42.6189 37.1461 42.4205 36.6472 42.4199ZM36.6472 45.1829C36.4135 45.1827 36.1894 45.0897 36.0241 44.9245C35.8589 44.7592 35.7659 44.5351 35.7656 44.3014C35.8119 43.1328 37.4826 43.1331 37.5287 44.3014C37.5285 44.5351 37.4355 44.7592 37.2702 44.9244C37.105 45.0897 36.8809 45.1827 36.6472 45.1829Z" fill="#D0A659"/>
</svg>
