<svg width="50" height="50" viewBox="0 0 50 50" fill="none" xmlns="http://www.w3.org/2000/svg">
<g clip-path="url(#clip0_170_1408)">
<path d="M14.6609 40.5574H8.02028C7.82988 40.5576 7.64597 40.4882 7.50312 40.3623C7.36027 40.2364 7.2683 40.0627 7.2445 39.8738L4.7445 20.0394C4.71839 19.8335 4.77517 19.6256 4.90234 19.4615C5.02952 19.2974 5.21667 19.1905 5.42262 19.1644C5.62858 19.1383 5.83647 19.1951 6.00057 19.3223C6.16466 19.4494 6.27152 19.6366 6.29762 19.8425L8.70856 38.9933H13.8797V21.2707C13.8797 21.0635 13.962 20.8648 14.1085 20.7182C14.255 20.5717 14.4537 20.4894 14.6609 20.4894C14.8681 20.4894 15.0668 20.5717 15.2133 20.7182C15.3598 20.8648 15.4422 21.0635 15.4422 21.2707V39.7761C15.4422 39.9833 15.3598 40.1821 15.2133 40.3286C15.0668 40.4751 14.8681 40.5574 14.6609 40.5574Z" fill="#D0A659"/>
<path d="M10.9379 22.5908C8.53537 22.5876 6.22043 21.6883 4.44571 20.0689C3.27963 19.0062 2.35063 17.7096 1.71929 16.2637C1.08796 14.8178 0.768469 13.2551 0.781651 11.6775C0.76832 10.1 1.08759 8.53735 1.71865 7.09148C2.34971 5.64562 3.27839 4.34898 4.44415 3.28608C5.4561 2.36028 6.65418 1.66136 7.95815 1.23614C9.26213 0.810909 10.6419 0.669187 12.0051 0.820459L35.0738 4.91187C35.2544 4.94396 35.418 5.03857 35.5358 5.17912C35.6536 5.31967 35.7183 5.4972 35.7184 5.68061V17.6736C35.7183 17.857 35.6536 18.0345 35.5358 18.1751C35.418 18.3156 35.2544 18.4102 35.0738 18.4423L12.0551 22.5275C11.6842 22.5698 11.3112 22.5909 10.9379 22.5908ZM10.916 2.31812C8.90418 2.33338 6.9694 3.09382 5.48556 4.45249C4.484 5.36871 3.68664 6.48559 3.14539 7.73043C2.60414 8.97526 2.33113 10.3201 2.34415 11.6775C2.33069 13.0354 2.60356 14.381 3.14497 15.6264C3.68638 16.8718 4.48417 17.9892 5.48634 18.9056C6.33433 19.6848 7.33942 20.2734 8.43395 20.6316C9.52848 20.9898 10.687 21.1093 11.8317 20.9822L34.1559 17.0197V6.3353L11.7817 2.36577C11.4942 2.33397 11.2052 2.31806 10.916 2.31812Z" fill="#D0A659"/>
<path d="M39.8779 20.5906C39.7705 20.591 39.6641 20.5692 39.5654 20.5266L34.6279 18.3969C34.4884 18.336 34.3697 18.2357 34.2865 18.1083C34.2032 17.9808 34.159 17.8319 34.1592 17.6797V5.67968C34.159 5.52747 34.2032 5.3785 34.2865 5.25109C34.3697 5.12368 34.4884 5.02337 34.6279 4.96249L39.5686 2.8328C39.6875 2.78087 39.8176 2.75941 39.9469 2.77036C40.0763 2.78131 40.2009 2.82432 40.3095 2.89551C40.418 2.96669 40.5071 3.06381 40.5687 3.17808C40.6303 3.29235 40.6625 3.42017 40.6623 3.54999V19.8094C40.6623 20.0166 40.58 20.2153 40.4335 20.3618C40.287 20.5083 40.0883 20.5906 39.8811 20.5906H39.8779ZM35.7186 17.1656L39.0967 18.6219V4.73749L35.7186 6.19452V17.1656Z" fill="#D0A659"/>
<path d="M10.1213 16.1094C9.24521 16.1092 8.38886 15.8493 7.6605 15.3625C6.93215 14.8756 6.3645 14.1837 6.02935 13.3743C5.6942 12.5649 5.60659 11.6742 5.7776 10.815C5.9486 9.9558 6.37055 9.16658 6.99009 8.54715C7.60962 7.92773 8.39892 7.50592 9.25817 7.33506C10.1174 7.1642 11.008 7.25197 11.8174 7.58727C12.6268 7.92256 13.3186 8.49033 13.8053 9.21877C14.292 9.94721 14.5518 10.8036 14.5518 11.6797C14.5503 12.8542 14.083 13.9802 13.2525 14.8106C12.4219 15.6411 11.2958 16.1081 10.1213 16.1094ZM10.1213 8.8125C9.55425 8.81266 8.99998 8.98095 8.52858 9.29609C8.05718 9.61123 7.6898 10.0591 7.47291 10.583C7.25602 11.1069 7.19935 11.6834 7.31007 12.2395C7.42079 12.7957 7.69393 13.3065 8.09494 13.7074C8.49596 14.1083 9.00684 14.3813 9.563 14.4918C10.1192 14.6024 10.6956 14.5456 11.2195 14.3286C11.7433 14.1115 12.1911 13.744 12.5061 13.2725C12.8211 12.801 12.9893 12.2467 12.9893 11.6797C12.9882 10.9194 12.6857 10.1906 12.1481 9.65315C11.6104 9.11565 10.8815 8.81333 10.1213 8.8125Z" fill="#D0A659"/>
<path d="M16.0734 28.1243H14.6602C14.453 28.1243 14.2542 28.042 14.1077 27.8955C13.9612 27.749 13.8789 27.5503 13.8789 27.3431V23.3204C13.8789 23.1132 13.9612 22.9145 14.1077 22.768C14.2542 22.6215 14.453 22.5392 14.6602 22.5392H16.0734C16.5703 22.5406 17.0464 22.7386 17.3977 23.09C17.749 23.4413 17.947 23.9173 17.9484 24.4142V26.2493C17.947 26.7462 17.749 27.2223 17.3977 27.5736C17.0464 27.9249 16.5703 28.1229 16.0734 28.1243ZM15.4414 26.5618H16.0734C16.1559 26.5606 16.2347 26.5273 16.2931 26.469C16.3514 26.4106 16.3847 26.3318 16.3859 26.2493V24.4173C16.3849 24.3347 16.3517 24.2558 16.2933 24.1975C16.2349 24.1391 16.156 24.1058 16.0734 24.1048H15.4414V26.5618Z" fill="#D0A659"/>
<path d="M10.747 49.2189C10.5942 49.2191 10.4448 49.1746 10.3171 49.0907C10.1894 49.0069 10.0891 48.8875 10.0286 48.7472C9.96811 48.607 9.95003 48.4521 9.97662 48.3017C10.0032 48.1513 10.0733 48.012 10.1782 47.901C10.4328 47.5622 10.5727 47.1511 10.5776 46.7273C10.5825 46.3036 10.4522 45.8893 10.2056 45.5447C8.96886 43.333 10.179 39.8924 10.3212 39.5072C10.3929 39.3128 10.5389 39.1548 10.7271 39.0679C10.9153 38.9811 11.1303 38.9726 11.3247 39.0443C11.5192 39.116 11.6772 39.262 11.764 39.4502C11.8508 39.6384 11.8593 39.8534 11.7876 40.0479C11.4751 40.9072 10.8181 43.4369 11.5704 44.7814C11.9824 45.4156 12.18 46.1652 12.134 46.92C12.088 47.6749 11.8009 48.395 11.315 48.9744C11.2419 49.0517 11.1539 49.1132 11.0562 49.1553C10.9585 49.1973 10.8533 49.219 10.747 49.2189Z" fill="#D0A659"/>
<path d="M44.1473 7.91501C43.1938 7.86035 42.2896 7.47335 41.5918 6.82126C41.4418 6.68021 41.3535 6.48564 41.3462 6.27986C41.3389 6.07408 41.4131 5.87374 41.5527 5.72239C41.6923 5.57103 41.886 5.48092 42.0917 5.47164C42.2974 5.46236 42.4985 5.53466 42.6512 5.67283C42.6605 5.6822 43.9137 6.80486 44.7144 6.14157C46.4637 4.69548 48.741 6.01501 48.8363 6.07126C49.0153 6.17662 49.1452 6.34879 49.1973 6.54987C49.2493 6.75096 49.2194 6.96451 49.1141 7.14353C49.0619 7.23217 48.9928 7.30967 48.9106 7.3716C48.8285 7.43353 48.735 7.47868 48.6354 7.50447C48.4344 7.55655 48.2208 7.52662 48.0418 7.42126C48.0207 7.40876 46.6074 6.6072 45.7113 7.34939C45.2743 7.71881 44.7195 7.91947 44.1473 7.91501Z" fill="#D0A659"/>
<path d="M44.1471 12.5163C43.1937 12.4613 42.2896 12.0744 41.5917 11.4225C41.4393 11.282 41.3489 11.0868 41.3405 10.8797C41.3321 10.6726 41.4063 10.4706 41.5467 10.3182C41.6872 10.1658 41.8825 10.0755 42.0896 10.0671C42.2967 10.0586 42.4986 10.1328 42.651 10.2733C42.6604 10.2835 43.9135 11.4061 44.7143 10.742C46.4635 9.29596 48.7409 10.6155 48.8362 10.6717C48.9246 10.7239 49.0018 10.793 49.0635 10.875C49.1252 10.957 49.1701 11.0504 49.1958 11.1498C49.2214 11.2492 49.2271 11.3526 49.2128 11.4542C49.1984 11.5559 49.1641 11.6537 49.112 11.742C49.0598 11.8304 48.9907 11.9077 48.9087 11.9694C48.8267 12.0311 48.7333 12.076 48.6339 12.1016C48.5345 12.1272 48.4311 12.133 48.3295 12.1186C48.2278 12.1042 48.13 12.07 48.0417 12.0178C48.0206 12.0045 46.6073 11.2038 45.7112 11.946C45.2747 12.3168 44.7199 12.5191 44.1471 12.5163Z" fill="#D0A659"/>
<path d="M44.1471 17.1173C43.1937 17.0624 42.2896 16.6754 41.5917 16.0235C41.4393 15.883 41.3489 15.6878 41.3405 15.4807C41.3321 15.2736 41.4063 15.0716 41.5467 14.9192C41.6872 14.7668 41.8825 14.6765 42.0896 14.6681C42.2967 14.6596 42.4986 14.7338 42.651 14.8743C42.6604 14.8845 43.9135 16.0063 44.7143 15.3431C46.4651 13.8923 48.7401 15.2157 48.837 15.2727C49.0153 15.3783 49.1443 15.5504 49.1958 15.7511C49.2472 15.9518 49.2168 16.1648 49.1112 16.3431C49.0056 16.5214 48.8335 16.6504 48.6328 16.7018C48.4321 16.7533 48.2192 16.7228 48.0409 16.6173C48.0026 16.5946 46.601 15.8063 45.7112 16.547C45.2748 16.918 44.7199 17.1203 44.1471 17.1173Z" fill="#D0A659"/>
</g>
<defs>
<clipPath id="clip0_170_1408">
<rect width="50" height="50" fill="white"/>
</clipPath>
</defs>
</svg>
