<svg width="50" height="50" viewBox="0 0 50 50" fill="none" xmlns="http://www.w3.org/2000/svg">
<path d="M42.9688 18.3594H42.1875V12.1094C42.185 9.95312 40.4375 8.20566 38.2812 8.20312H11.7188C9.5625 8.20566 7.81504 9.95312 7.8125 12.1094V18.3594H7.03125C3.15 18.3641 0.0046875 21.5094 0 25.3906V36.3281H1.5625V41.7969H5.46875V36.3281H44.5312V41.7969H48.4375V36.3281H50V25.3906C49.9953 21.5094 46.85 18.3641 42.9688 18.3594ZM9.375 12.1094C9.375 10.8149 10.4243 9.76562 11.7188 9.76562H38.2812C39.5757 9.76562 40.625 10.8149 40.625 12.1094V18.3594H38.2812V15.2344C38.2812 13.9399 37.2319 12.8906 35.9375 12.8906H28.9062C27.6118 12.8906 26.5625 13.9399 26.5625 15.2344V18.3594H23.4375V15.2344C23.4375 13.9399 22.3882 12.8906 21.0938 12.8906H14.0625C12.7681 12.8906 11.7188 13.9399 11.7188 15.2344V18.3594H9.375V12.1094ZM36.7188 15.2344V18.3594H28.125V15.2344C28.125 14.8029 28.4748 14.4531 28.9062 14.4531H35.9375C36.3689 14.4531 36.7188 14.8029 36.7188 15.2344ZM21.875 15.2344V18.3594H13.2812V15.2344C13.2812 14.8029 13.6311 14.4531 14.0625 14.4531H21.0938C21.5252 14.4531 21.875 14.8029 21.875 15.2344ZM3.90625 40.2344H3.125V36.3281H3.90625V40.2344ZM46.875 40.2344H46.0938V36.3281H46.875V40.2344ZM48.4375 34.7656H1.5625V30.8594H48.4375V34.7656ZM48.4375 29.2969H1.5625V25.3906C1.56592 22.3718 4.0124 19.9253 7.03125 19.9219H42.9688C45.9876 19.9253 48.4341 22.3718 48.4375 25.3906V29.2969Z" fill="#D0A659"/>
</svg>
