<svg width="50" height="50" viewBox="0 0 50 50" fill="none" xmlns="http://www.w3.org/2000/svg">
<circle opacity="0.8" cx="23" cy="22" r="19" fill="#D0A659"/>
<path d="M41.5796 31.9992C41.5615 31.977 38.1729 28.7728 38.1512 28.7505C37.6551 28.3763 37.0333 28.2088 36.4163 28.2833C35.7993 28.3578 35.2352 28.6684 34.8424 29.1499C33.1082 31.3241 29.1812 27.2662 27.6332 24.652C26.8173 22.8343 27.9587 22.1257 28.0559 22.0374C29.4129 20.7714 28.9531 19.3592 28.5018 18.7669L25.4028 15.244C23.4266 13.2638 20.8826 16.5689 20.5294 17.1795C17.5656 21.8067 25.2865 30.0028 25.9003 30.6583C26.2323 31.0647 34.8708 39.677 39.4643 36.7962C40.0596 36.4764 43.4982 34.0551 41.5796 31.9992ZM41.3219 33.5566C41.1621 34.6245 39.6267 35.7532 39.0487 36.098C34.9265 38.5535 26.9933 30.6103 26.5069 30.1165C26.3901 29.9943 18.5598 21.7969 21.2117 17.6201C21.576 17.0564 22.7566 15.5667 23.8337 15.4447C24.0138 15.425 24.196 15.4471 24.3661 15.5093C24.5362 15.5715 24.6896 15.6721 24.8145 15.8034L27.8714 19.2785C27.9522 19.3882 28.6238 20.3737 27.5251 21.4212C26.9068 21.8437 26.0209 23.098 26.9068 25.0152C27.2582 25.629 27.6623 26.2111 28.1146 26.7549C29.1415 28.1204 30.4248 29.2726 31.8927 30.1469C33.7539 31.0917 35.0385 30.253 35.4831 29.6504C36.5739 28.5915 37.5324 29.2965 37.6145 29.36L40.9873 32.5556C41.1168 32.6851 41.2144 32.843 41.2725 33.0167C41.3306 33.1904 41.3475 33.3752 41.3219 33.5566Z" fill="white"/>
</svg>
