<svg width="50" height="50" viewBox="0 0 50 50" fill="none" xmlns="http://www.w3.org/2000/svg">
<circle opacity="0.8" cx="23" cy="22" r="19" fill="#D0A659"/>
<path d="M41.758 16.3292H38.7501V13.4502C38.7492 13.3847 38.7342 13.3201 38.7061 13.2609C38.678 13.2017 38.6375 13.1492 38.5873 13.1071C38.5372 13.0649 38.4785 13.034 38.4154 13.0165C38.3522 12.9991 38.286 12.9954 38.2213 13.0057L19.1646 16.3357C19.0607 16.3555 18.9668 16.4106 18.8987 16.4916C18.8307 16.5726 18.7926 16.6746 18.791 16.7804V45.5479C18.7911 45.6675 18.8386 45.7822 18.9232 45.8668C19.0078 45.9514 19.1226 45.999 19.2422 45.999H41.758C41.8776 45.999 41.9924 45.9515 42.077 45.8669C42.1616 45.7823 42.2092 45.6675 42.2092 45.5479V16.7804C42.2092 16.7211 42.1975 16.6624 42.1749 16.6077C42.1522 16.5529 42.119 16.5032 42.0771 16.4613C42.0352 16.4194 41.9854 16.3861 41.9307 16.3635C41.8759 16.3408 41.8172 16.3292 41.758 16.3292ZM37.8477 13.9872V16.3292H24.4454L37.8477 13.9872ZM41.3068 45.0967H19.6934V17.2316H41.3068V45.0967Z" fill="white"/>
<path d="M25.6316 28.6507L25.1995 36.1567C25.1801 36.3977 25.2109 36.6402 25.2898 36.8688C25.3687 37.0974 25.494 37.3072 25.6579 37.485C25.8218 37.6628 26.0207 37.8048 26.2421 37.902C26.4636 37.9992 26.7027 38.0496 26.9445 38.0499C27.1863 38.0503 27.4256 38.0006 27.6473 37.904C27.869 37.8073 28.0683 37.6659 28.2327 37.4886C28.3971 37.3112 28.523 37.1018 28.6026 36.8734C28.6821 36.645 28.7135 36.4027 28.6949 36.1616L28.2638 28.6507C29.1061 28.3318 29.5872 27.4478 29.4879 26.3258L29.2015 23.0861C29.1587 22.5296 28.9143 22.0078 28.5142 21.6186C28.1142 21.2294 27.5859 20.9995 27.0284 20.972C26.4507 20.9521 25.8874 21.1542 25.4542 21.5367C25.0209 21.9193 24.7506 22.4532 24.6988 23.0289L24.4075 26.3258C24.3079 27.4478 24.7893 28.3318 25.6316 28.6507ZM25.3062 26.4062L25.5978 23.1088C25.6278 22.7714 25.7831 22.4574 26.033 22.2287C26.2829 22 26.6094 21.8731 26.9482 21.8731H26.9967C27.3342 21.8927 27.653 22.0346 27.8934 22.2723C28.1338 22.51 28.2794 22.8272 28.3027 23.1645L28.5892 26.4062C28.615 26.714 28.6348 27.7285 27.726 27.8636C27.6146 27.8802 27.5134 27.9378 27.4423 28.0252C27.3712 28.1126 27.3354 28.2235 27.3419 28.3359L27.7954 36.2186C27.804 36.3348 27.7883 36.4516 27.7493 36.5615C27.7103 36.6714 27.6489 36.772 27.569 36.8569C27.488 36.9396 27.3914 37.0052 27.2847 37.0501C27.178 37.0949 27.0634 37.118 26.9477 37.118C26.832 37.118 26.7174 37.0949 26.6107 37.0501C26.504 37.0052 26.4073 36.9396 26.3264 36.8569C26.2459 36.7711 26.1842 36.6695 26.1452 36.5585C26.1063 36.4475 26.091 36.3296 26.1003 36.2124L26.5535 28.3336C26.56 28.2212 26.5242 28.1103 26.4531 28.0229C26.382 27.9355 26.2808 27.8779 26.1694 27.8613C25.2606 27.7275 25.2789 26.713 25.3062 26.4062Z" fill="white"/>
<path d="M32.736 28.6508L32.3049 36.1565C32.2865 36.397 32.318 36.6388 32.3974 36.8666C32.4767 37.0944 32.6023 37.3034 32.7661 37.4805C32.9299 37.6576 33.1286 37.799 33.3495 37.8958C33.5705 37.9926 33.8091 38.0427 34.0504 38.0431C34.2916 38.0435 34.5304 37.994 34.7516 37.8979C34.9729 37.8017 35.1719 37.6609 35.3363 37.4843C35.5007 37.3077 35.6268 37.0991 35.7068 36.8715C35.7869 36.6439 35.819 36.4022 35.8014 36.1616L35.3685 28.6508C36.2103 28.3319 36.6919 27.4478 36.5926 26.3258L36.4931 25.2025V21.422C36.4931 21.3023 36.4456 21.1876 36.3609 21.1029C36.2763 21.0183 36.1616 20.9708 36.0419 20.9708C35.9223 20.9708 35.8075 21.0183 35.7229 21.1029C35.6383 21.1876 35.5907 21.3023 35.5907 21.422V24.7712H34.5033V21.422C34.5033 21.3023 34.4558 21.1876 34.3711 21.1029C34.2865 21.0183 34.1718 20.9708 34.0521 20.9708C33.9325 20.9708 33.8177 21.0183 33.7331 21.1029C33.6485 21.1876 33.6009 21.3023 33.6009 21.422V24.7712H32.5137V21.422C32.5137 21.3023 32.4662 21.1876 32.3816 21.1029C32.297 21.0183 32.1822 20.9708 32.0626 20.9708C31.9429 20.9708 31.8282 21.0183 31.7436 21.1029C31.6589 21.1876 31.6114 21.3023 31.6114 21.422V25.2025L31.5119 26.3258C31.4126 27.4478 31.894 28.3319 32.736 28.6508ZM32.4106 26.4063L32.4753 25.6746H35.6292L35.6939 26.4063C35.7209 26.7141 35.739 27.7286 34.8307 27.8637C34.7193 27.8802 34.6181 27.9379 34.547 28.0253C34.4759 28.1127 34.4401 28.2235 34.4466 28.336L34.8998 36.2199C34.9084 36.3361 34.8927 36.4528 34.8537 36.5626C34.8147 36.6724 34.7533 36.7729 34.6734 36.8577C34.5925 36.9404 34.4958 37.006 34.3891 37.0509C34.2824 37.0957 34.1678 37.1188 34.0521 37.1188C33.9364 37.1188 33.8218 37.0957 33.7151 37.0509C33.6085 37.006 33.5118 36.9404 33.4308 36.8577C33.3504 36.7719 33.2887 36.6703 33.2498 36.5593C33.2108 36.4483 33.1955 36.3304 33.2047 36.2132L33.6579 28.3344C33.6644 28.222 33.6286 28.1111 33.5575 28.0237C33.4864 27.9363 33.3852 27.8787 33.2738 27.8621C32.3653 27.7278 32.3836 26.7131 32.4106 26.4063Z" fill="white"/>
<path d="M21.251 40.0703V43.2285C21.251 43.3482 21.2986 43.4629 21.3832 43.5475C21.4678 43.6321 21.5825 43.6796 21.7021 43.6797H39.2979C39.4175 43.6797 39.5323 43.6322 39.6169 43.5475C39.7015 43.4629 39.749 43.3482 39.749 43.2285V40.0703C39.749 39.9507 39.7015 39.8359 39.6169 39.7513C39.5323 39.6667 39.4175 39.6191 39.2979 39.6191H21.7021C21.5825 39.6192 21.4678 39.6668 21.3832 39.7514C21.2986 39.836 21.251 39.9507 21.251 40.0703ZM22.1533 40.5215H38.8467V42.7773H22.1533V40.5215Z" fill="white"/>
</svg>
