<svg width="50" height="50" viewBox="0 0 50 50" fill="none" xmlns="http://www.w3.org/2000/svg">
<circle opacity="0.8" cx="23" cy="22" r="19" fill="#D0A659"/>
<path d="M32.4997 23.4174C28.87 23.4174 25.917 26.3703 25.917 30.0001C25.917 33.6298 28.8699 36.5828 32.4997 36.5828C36.1294 36.5828 39.0824 33.6297 39.0824 30C39.0824 26.3703 36.1294 23.4174 32.4997 23.4174ZM32.4997 35.1655C29.6515 35.1655 27.3343 32.8482 27.3343 30C27.3343 27.1518 29.6515 24.8346 32.4997 24.8346C35.348 24.8346 37.6652 27.1518 37.6652 30.0001C37.6652 32.8483 35.348 35.1655 32.4997 35.1655Z" fill="white" stroke="white" stroke-width="0.2"/>
<path d="M37.5615 23.6719C37.5615 22.8951 38.1912 22.2656 38.9678 22.2656C39.7445 22.2656 40.374 22.8951 40.374 23.6719C40.374 24.4486 39.7445 25.0781 38.9678 25.0781C38.1912 25.0781 37.5615 24.4486 37.5615 23.6719Z" fill="white"/>
<path d="M37.9208 18H27.0792C23.4514 18 20.5 20.9514 20.5 24.5793V35.4208C20.5 39.0486 23.4514 42 27.0792 42H37.9208C41.5486 42 44.5 39.0486 44.5 35.4208V24.5793C44.5 20.9514 41.5486 18 37.9208 18ZM43.0827 35.4208C43.0827 38.2671 40.7671 40.5827 37.9208 40.5827H27.0792C24.2329 40.5827 21.9173 38.2671 21.9173 35.4208V24.5793C21.9173 21.7329 24.2329 19.4173 27.0792 19.4173H37.9208C40.7671 19.4173 43.0827 21.7329 43.0827 24.5793V35.4208Z" fill="white" stroke="white" stroke-width="0.2"/>
</svg>
