<svg width="35" height="36" viewBox="0 0 35 36" fill="none" xmlns="http://www.w3.org/2000/svg">
<g clip-path="url(#clip0_56_823)">
<circle opacity="0.6" cx="13.5" cy="15" r="13.5" fill="#D0A659"/>
<path d="M21.9992 20.2795C18.706 20.2795 16.0256 17.5992 16.0256 14.3059C16.0256 11.0126 18.706 8.33228 21.9992 8.33228C25.2925 8.33228 27.9729 11.0126 27.9729 14.3059C27.9729 17.5992 25.2925 20.2795 21.9992 20.2795ZM21.9992 9.89061C19.5682 9.89061 17.584 11.8749 17.584 14.3059C17.584 16.7369 19.5682 18.7212 21.9992 18.7212C24.4302 18.7212 26.4145 16.7369 26.4145 14.3059C26.4145 11.8749 24.4302 9.89061 21.9992 9.89061Z" fill="#002D2A"/>
<path d="M30.9231 30.6687C30.4972 30.6687 30.1439 30.3155 30.1439 29.8895C30.1439 26.3054 26.4872 23.3965 21.9992 23.3965C17.5111 23.3965 13.8542 26.3054 13.8542 29.8895C13.8542 30.3155 13.501 30.6687 13.0751 30.6687C12.6491 30.6687 12.2959 30.3155 12.2959 29.8895C12.2959 25.4535 16.6488 21.8381 21.9992 21.8381C27.3494 21.8381 31.7023 25.4535 31.7023 29.8895C31.7023 30.3155 31.3491 30.6687 30.9231 30.6687Z" fill="#002D2A"/>
</g>
<defs>
<clipPath id="clip0_56_823">
<rect width="35" height="35" fill="white" transform="translate(0 0.5)"/>
</clipPath>
</defs>
</svg>
