<svg width="30" height="30" viewBox="0 0 30 30" fill="none" xmlns="http://www.w3.org/2000/svg">
<path d="M13.7005 26.25V14.5H8.75V12.5H13.7005V9.9125C13.7005 7.7625 13.9109 6.975 14.3317 6.175C14.7277 5.4125 15.3465 4.7875 16.1015 4.3875C16.8812 3.9625 17.6733 3.75 19.802 3.75C20.3465 3.75 20.8292 3.8 21.25 3.8875V5.75H19.802C18.2178 5.75 17.6238 5.8375 17.0421 6.15C16.6213 6.375 16.2995 6.7 16.0767 7.125C15.7673 7.7125 15.6807 8.3125 15.6807 9.9125V12.5H21.1757L20.6807 14.5H15.6807V26.25H13.7005Z" fill="#D0A659"/>
</svg>
