<svg width="122" height="68" viewBox="0 0 122 68" fill="none" xmlns="http://www.w3.org/2000/svg">
<g clip-path="url(#clip0_164_124)">
<path fill-rule="evenodd" clip-rule="evenodd" d="M52.4863 8.22417L62.0061 17.7747C62.2283 17.9978 62.3959 18.319 62.8161 18.319L78.9675 18.2975C78.2314 17.4417 73.5087 12.7961 72.5999 11.8861L67.8027 7.11524C67.2864 6.54621 66.7397 6.00558 66.1649 5.49573L61.4002 10.4463C61.1459 10.709 60.9881 11.0233 60.6369 11.1575L55.2406 5.4957L52.4863 8.22417Z" fill="white"/>
<path fill-rule="evenodd" clip-rule="evenodd" d="M42.4292 18.3049L42.8008 18.3224C48.463 18.1946 54.9503 18.4006 60.7424 18.3167C60.4394 17.8815 51.9864 9.53495 51.1541 8.69511C50.6507 8.18685 48.2705 5.69056 47.9042 5.50027C47.0931 6.21453 46.4761 7.02205 45.669 7.7958C44.5124 8.92327 43.4295 10.124 42.4272 11.3907L42.4292 18.3049Z" fill="white"/>
<path fill-rule="evenodd" clip-rule="evenodd" d="M59 48.8217L61.496 48.8232L61.5182 30.1325C63.4831 30.0316 65.4526 30.0678 67.4125 30.2408C68.1743 30.4027 68.8689 30.7923 69.4042 31.358C69.9395 31.9238 70.2901 32.6388 70.4096 33.4085C70.5291 34.1781 70.4118 34.9658 70.0732 35.6672C69.7347 36.3686 69.191 36.9505 68.5141 37.3357C66.8103 38.1675 64.887 37.57 63.0132 37.8134L63.0079 40.0392C65.1664 40.1946 68.3231 40.225 70.1462 39.1242C71.1527 38.5194 71.9599 37.6331 72.4683 36.5747C72.9767 35.5162 73.1639 34.3321 73.0068 33.1684C72.8498 32.0048 72.3553 30.9126 71.5845 30.0268C70.8137 29.1411 69.8003 28.5005 68.6695 28.1842C67.1379 27.8709 65.5707 27.7681 64.0114 27.8787C62.4 27.8787 60.5875 27.8013 59.0009 27.89L59 48.8217Z" fill="white"/>
<path fill-rule="evenodd" clip-rule="evenodd" d="M20.3974 41.915L17.8946 41.9175C17.8707 43.4007 18.1748 43.4607 16.5274 44.9131C12.4975 48.4663 4.26543 47.3851 2.79042 40.2221C2.56258 37.3144 2.49623 34.3962 2.59169 31.4811C1.83565 31.8375 0.715054 34.2512 0.425461 35.2696C-0.135823 37.216 -0.15082 39.2794 0.382112 41.2338C0.915044 43.1882 1.97536 44.9584 3.44702 46.3505C4.98968 47.7017 6.86806 48.6121 8.88445 48.9858C10.9008 49.3595 12.9807 49.1827 14.9051 48.4741C16.9689 47.7301 18.7479 46.3584 19.9923 44.5517C20.2628 44.246 20.409 43.8501 20.4019 43.442C20.4019 42.9335 20.3982 42.424 20.3974 41.915Z" fill="white"/>
<path fill-rule="evenodd" clip-rule="evenodd" d="M38.7339 49.1708C40.5898 49.2525 42.4345 48.8443 44.0826 47.9874C44.6963 47.6724 45.2663 47.2786 45.778 46.8159C45.8622 45.8458 45.8764 44.8709 45.8205 43.8987C44.3603 45.4032 42.4583 46.4027 40.3911 46.7518C39.0111 46.9721 37.5978 46.8374 36.2843 46.3605C34.9708 45.8836 33.8002 45.0803 32.883 44.026C29.7133 40.0687 31.2464 36.1512 30.8522 31.4834C29.6947 32.2375 28.619 35.0419 28.3831 36.6757C28.14 38.1922 28.2234 39.7432 28.6278 41.225C29.0322 42.7067 29.7483 44.0851 30.7281 45.2679C31.7079 46.4507 32.929 47.4107 34.3096 48.0838C35.6902 48.7569 37.1986 49.1274 38.7339 49.1708Z" fill="white"/>
<path fill-rule="evenodd" clip-rule="evenodd" d="M32.4033 29.9633L32.4045 32.7683C33.8987 31.27 35.8259 30.2793 37.9139 29.936C39.0481 29.761 40.2065 29.8275 41.3132 30.1311C42.42 30.4347 43.4502 30.9686 44.3363 31.6979C45.9433 33.0581 46.9874 34.967 47.2657 37.0539C47.4823 38.5174 47.3176 43.3062 47.3704 45.2516C48.2228 44.3802 48.8771 43.3352 49.2889 42.1878C50.2501 39.4244 50.1191 36.3982 48.9226 33.7282C47.7889 31.3207 45.8096 29.414 43.3614 28.3711C40.9132 27.3282 38.167 27.2219 35.6455 28.0724C34.4393 28.4576 33.3325 29.1031 32.4033 29.9633Z" fill="white"/>
<path fill-rule="evenodd" clip-rule="evenodd" d="M81.4746 48.815L84.0744 48.8239L85.867 44.5787L94.3745 44.5754L93.4335 42.3273L86.8461 42.3269C87.3008 41.0505 89.0099 37.2024 89.6928 35.6304C89.9156 35.1173 90.2161 34.7693 89.9731 34.2217C89.6332 33.3237 89.2449 32.4448 88.8099 31.5888L81.4746 48.815Z" fill="white"/>
<path fill-rule="evenodd" clip-rule="evenodd" d="M97.8491 48.8261L100.435 48.8253C100.423 48.4624 93.4802 32.4067 92.5716 30.1889C92.2371 29.2795 91.8512 28.3898 91.4157 27.5242L90.5194 27.5255C90.3017 27.9687 90.1403 28.3691 89.952 28.7909C89.6276 29.5185 89.5383 29.375 89.8556 30.1155L96.6875 46.1668C97.0253 47.074 97.4132 47.9617 97.8491 48.8261Z" fill="white"/>
<path fill-rule="evenodd" clip-rule="evenodd" d="M109.015 45.019L109.303 45.059L111.217 45.0533L111.525 45.039L111.526 27.8981L109.014 27.8838L109.015 45.019Z" fill="white"/>
<path fill-rule="evenodd" clip-rule="evenodd" d="M56.1455 4.54826C56.4732 4.97172 56.8381 5.36494 57.2361 5.72318L59.5117 8.15223C59.8979 8.548 60.3436 8.97435 60.6763 9.36899L65.2674 4.53276C64.8739 4.18851 64.5014 3.8211 64.1517 3.43248C63.5347 2.81041 60.995 0.131948 60.6555 0L56.1455 4.54826Z" fill="white"/>
<path fill-rule="evenodd" clip-rule="evenodd" d="M70.7314 8.20544C70.9047 8.5138 78.5948 16.2279 78.9724 16.4603C79.0024 15.0983 78.9761 13.7093 78.9765 12.3436C78.977 11.3353 79.1711 11.3496 78.519 10.7539C77.7355 10.0387 73.9002 5.69587 73.4108 5.48654L70.7314 8.20544Z" fill="white"/>
<path fill-rule="evenodd" clip-rule="evenodd" d="M4.12354 29.862L4.12969 32.8019C5.01748 31.8562 6.09278 31.1061 7.28687 30.5994C8.48097 30.0928 9.76762 29.8408 11.0646 29.8595C12.4312 29.8762 13.7698 30.2493 14.9481 30.9419C15.4411 31.2644 15.911 31.6209 16.3543 32.009C16.7849 32.3664 17.1057 32.9451 17.5146 33.2923C18.0273 32.7907 18.7022 32.3908 19.2841 31.8767C19.1568 31.1274 17.2989 29.6514 16.561 29.1731C15.2564 28.357 13.7932 27.8273 12.2685 27.6193C10.7437 27.4113 9.19212 27.5297 7.71655 27.9666C6.73069 28.2503 5.7971 28.6913 4.95182 29.2726L4.12354 29.862Z" fill="white"/>
<path d="M121.362 46.6241H109.062V48.763H121.362V46.6241Z" fill="white"/>
<path fill-rule="evenodd" clip-rule="evenodd" d="M74.3862 4.6213C75.15 5.42237 75.916 6.15969 76.6891 6.99971L78.9725 9.37356L78.9745 0.00457764C77.3678 1.46472 75.8364 3.00562 74.3862 4.6213Z" fill="white"/>
<path fill-rule="evenodd" clip-rule="evenodd" d="M42.4258 9.36856C42.6298 9.21872 42.8101 9.03912 42.9608 8.83576L47.0125 4.60503C46.8608 4.33379 42.6842 0.12751 42.4348 0.0114441L42.4258 9.36856Z" fill="white"/>
<path fill-rule="evenodd" clip-rule="evenodd" d="M67.1636 41.5729C67.1611 41.8252 69.984 45.5712 70.3437 46.0376C70.9043 46.7647 71.4578 47.5276 72.0025 48.2842C72.4946 48.9679 72.333 48.8264 73.3409 48.8239C73.9468 48.8223 74.6944 48.8636 75.2816 48.8077C75.0398 48.4261 74.7768 48.0585 74.4937 47.7065L70.1697 41.8252C69.6859 41.1544 69.8611 41.1033 68.9509 41.2716C68.3755 41.3778 67.7565 41.5032 67.1636 41.5729Z" fill="white"/>
<path fill-rule="evenodd" clip-rule="evenodd" d="M20.4133 40.3521L20.389 38.2088L10.8441 38.2116L10.8398 40.3578L10.9042 40.3564L20.4133 40.3521Z" fill="white"/>
<path fill-rule="evenodd" clip-rule="evenodd" d="M108.985 48.8335L121.404 48.8562L121.438 46.5545L109.006 46.537L108.985 48.8335ZM109.061 46.6243L121.362 46.6255L121.363 48.7638H109.064L109.061 46.6243Z" fill="white"/>
<path fill-rule="evenodd" clip-rule="evenodd" d="M20.4131 40.3538L10.905 40.3578L10.8402 40.3586L10.8438 38.2132L20.3892 38.2099C20.2842 38.0537 20.1889 38.1121 19.919 38.1133C17.9869 38.1234 11.595 38.0217 10.7936 38.1424L10.7554 40.3911C11.3074 40.5403 18.0632 40.4263 19.8368 40.4466C19.8936 40.4475 20.1206 40.4547 20.1604 40.4495C20.4306 40.4141 20.3024 40.4402 20.4131 40.3538Z" fill="white"/>
<path d="M20.9641 64.4591H16.1645V63.7701H20.9641V64.4591ZM16.2493 67.8813H15.4648V60.4641H16.2493V67.8813ZM20.89 60.4641H21.6633V67.8813H20.89V60.4641Z" fill="white"/>
<path d="M29.9515 67.2491C30.3737 67.2533 30.7927 67.1761 31.1857 67.0215C31.5547 66.8753 31.8901 66.6553 32.1712 66.375C32.4501 66.096 32.6714 65.7649 32.8225 65.4004C33.1334 64.6141 33.1334 63.739 32.8225 62.9527C32.6715 62.5881 32.4502 62.2568 32.1712 61.9777C31.8902 61.6974 31.5548 61.4775 31.1857 61.3316C30.7928 61.1768 30.3737 61.0994 29.9515 61.1037C29.5274 61.0997 29.1065 61.1771 28.7115 61.3316C28.3404 61.4766 28.0031 61.6966 27.7207 61.9777C27.1412 62.5628 26.8162 63.3529 26.8162 64.1764C26.8162 64.9998 27.1412 65.79 27.7207 66.375C28.0031 66.6562 28.3404 66.8762 28.7115 67.0215C29.1065 67.1758 29.5274 67.2531 29.9515 67.2491ZM29.9515 67.9486C29.4208 67.9537 28.8941 67.8584 28.3989 67.6676C27.9398 67.4911 27.5211 67.2237 27.1679 66.8814C26.8147 66.5391 26.5343 66.1291 26.3434 65.6758C25.9552 64.714 25.9552 63.6392 26.3434 62.6774C26.5342 62.2249 26.814 61.8153 27.1662 61.4731C27.5184 61.1309 27.9358 60.8629 28.3936 60.6852C29.3947 60.3109 30.4972 60.3109 31.4983 60.6852C31.958 60.8637 32.3776 61.132 32.7325 61.4745C33.0827 61.8142 33.3603 62.2215 33.5485 62.6717C33.9369 63.6373 33.9369 64.7156 33.5485 65.6811C33.3603 66.1313 33.0827 66.5386 32.7325 66.8784C32.3777 67.2209 31.9581 67.4892 31.4983 67.6676C31.0052 67.8586 30.4802 67.954 29.9515 67.9486Z" fill="white"/>
<path d="M39.5645 67.8859V61.1468H36.959V60.4686H42.9554V61.1468H40.3485V67.8859H39.5645Z" fill="white"/>
<path d="M47.6209 67.2033H52.0814V67.8813H46.8364V60.4641H51.9225V61.1423H47.6209L47.6209 67.2033ZM47.5361 63.781H51.4564V64.4481H47.5361V63.781Z" fill="white"/>
<path d="M56.5547 67.8859V60.4686H57.3388V67.2077H61.4924V67.8859H56.5547Z" fill="white"/>
<path d="M70.0037 67.9455C69.5646 67.9534 69.1283 67.8724 68.7213 67.7072C68.3733 67.5681 68.0682 67.3396 67.8366 67.0449C67.6211 66.7621 67.5072 66.4148 67.5134 66.0592C67.5101 65.7548 67.5831 65.4543 67.7256 65.1853C67.9 64.8818 68.1321 64.6154 68.409 64.4012C68.8014 64.0925 69.2218 63.8211 69.6646 63.5905C70.0241 63.3964 70.3725 63.1824 70.7083 62.9496C70.917 62.811 71.0984 62.635 71.2432 62.4305C71.3471 62.2713 71.4023 62.0852 71.4022 61.8951C71.4068 61.7701 71.3841 61.6456 71.3356 61.5303C71.2872 61.415 71.2141 61.3117 71.1215 61.2276C70.8962 61.0451 70.6105 60.9542 70.3212 60.9733C70.0065 60.9532 69.6959 61.0536 69.4526 61.2543C69.3517 61.3457 69.272 61.458 69.2189 61.5833C69.1658 61.7086 69.1406 61.844 69.1451 61.98C69.1444 62.1241 69.1677 62.2673 69.2141 62.4038C69.2764 62.5662 69.3659 62.7168 69.4789 62.8491C69.6098 63.0113 69.7918 63.2162 70.0248 63.4636L73.9451 67.5003L73.5107 67.9983L69.4208 63.7921C69.212 63.5756 69.0157 63.3474 68.8328 63.1086C68.7021 62.941 68.6 62.753 68.5306 62.5522C68.4734 62.3705 68.4448 62.181 68.4459 61.9905C68.4357 61.6982 68.5144 61.4096 68.6714 61.1628C68.8284 60.916 69.0564 60.7226 69.3255 60.6079C69.6392 60.4709 69.979 60.4041 70.3212 60.412C70.6323 60.4051 70.9412 60.4647 71.2273 60.5868C71.4729 60.6929 71.6826 60.8677 71.8313 61.09C71.9813 61.3273 72.057 61.604 72.0486 61.8845C72.05 62.1482 71.9823 62.4076 71.8523 62.6371C71.6882 62.9067 71.47 63.1393 71.2115 63.3204C70.8271 63.5977 70.4235 63.8474 70.0037 64.0675C69.6348 64.2653 69.2822 64.492 68.9492 64.7456C68.7298 64.9074 68.5444 65.1108 68.4037 65.3443C68.297 65.541 68.2423 65.7617 68.2447 65.9855C68.24 66.2391 68.32 66.487 68.4722 66.6899C68.6373 66.9008 68.8573 67.0621 69.1082 67.1559C69.4073 67.2704 69.7257 67.3261 70.0459 67.3201C70.506 67.3283 70.961 67.2229 71.3706 67.0133C71.7737 66.7944 72.1118 66.4726 72.3504 66.0808C72.6397 65.5989 72.8357 65.0668 72.928 64.5124L73.5318 64.7029C73.426 65.3371 73.1917 65.9429 72.8431 66.4831C72.5402 66.9439 72.1245 67.3197 71.6354 67.5745C71.1293 67.8278 70.5696 67.9551 70.0037 67.9455Z" fill="white"/>
<path d="M82.7419 67.9463C82.2024 67.9482 81.6666 67.8569 81.1581 67.6764C80.7203 67.5367 80.3199 67.2992 79.9873 66.982L80.2946 66.378C80.6 66.6596 80.9583 66.8776 81.3487 67.0192C81.7926 67.1928 82.2653 67.2809 82.7419 67.2788C83.1292 67.2916 83.5155 67.2323 83.8812 67.104C84.1385 67.014 84.3633 66.8499 84.5274 66.6323C84.6634 66.4403 84.7357 66.2105 84.7341 65.9753C84.746 65.7186 84.6566 65.4675 84.4852 65.276C84.3025 65.0888 84.0796 64.9457 83.8333 64.8576C83.5428 64.7485 83.2456 64.6583 82.9435 64.5874C82.6187 64.5098 82.2937 64.4268 81.9685 64.3383C81.6573 64.2555 81.3569 64.1364 81.0734 63.9835C80.8103 63.8432 80.5849 63.6414 80.4164 63.3954C80.2385 63.1083 80.1516 62.774 80.1673 62.4366C80.1646 62.0783 80.2658 61.7268 80.4585 61.4247C80.6785 61.0956 80.9897 60.8378 81.354 60.6829C81.8435 60.4792 82.3711 60.3834 82.901 60.4022C83.3204 60.4025 83.7377 60.4613 84.1408 60.577C84.5179 60.6785 84.8758 60.8412 85.2001 61.0587L84.9353 61.6842C84.6251 61.4756 84.2835 61.3181 83.9234 61.2179C83.5873 61.1221 83.2398 61.0723 82.8904 61.0698C82.5149 61.0578 82.1406 61.119 81.7884 61.2499C81.5322 61.3443 81.3094 61.5118 81.1475 61.7317C81.0098 61.9328 80.9376 62.1715 80.9408 62.4151C80.9289 62.6719 81.0183 62.9231 81.1897 63.1146C81.3731 63.3023 81.5983 63.4439 81.8468 63.5281C82.1399 63.633 82.4388 63.7214 82.7419 63.7928C83.0672 63.8703 83.3905 63.9551 83.7117 64.0472C84.02 64.1337 84.3182 64.2526 84.6015 64.402C84.8641 64.5384 85.0895 64.7367 85.2585 64.9796C85.4361 65.2611 85.523 65.5902 85.5076 65.9227C85.5089 66.2782 85.4058 66.6263 85.2112 66.9239C84.9867 67.2531 84.6721 67.5105 84.305 67.6654C83.81 67.8696 83.277 67.9654 82.7419 67.9463Z" fill="white"/>
<path d="M90.6281 65.2338L90.2781 64.8522H92.5989C93.2013 64.8942 93.7993 64.7237 94.2889 64.3703C94.4829 64.2026 94.6359 63.9926 94.736 63.7565C94.8361 63.5204 94.8807 63.2645 94.8664 63.0085C94.8811 62.7501 94.8367 62.4917 94.7367 62.2531C94.6366 62.0144 94.4835 61.8017 94.2889 61.631C93.8008 61.274 93.2021 61.1013 92.5989 61.1436H90.2781L90.6281 60.7728V65.2338ZM89.8438 67.8825V60.4653H92.6199C93.1755 60.4513 93.7278 60.5543 94.241 60.7675C94.6673 60.9471 95.0306 61.2495 95.2846 61.6362C95.5378 62.0481 95.6649 62.5251 95.6505 63.0083C95.6632 63.4847 95.536 63.9544 95.2846 64.3592C95.0301 64.7468 94.6671 65.0509 94.241 65.2337C93.7287 65.4503 93.176 65.555 92.6199 65.5407H90.2781L90.6281 65.17V67.8824L89.8438 67.8825Z" fill="white"/>
<path d="M99.7532 65.9001L99.9864 65.2641H104.299L104.532 65.9001H99.7532ZM98.418 67.8813L101.809 60.4641H102.582L105.973 67.8813H105.147L102.031 60.92H102.349L99.2341 67.8813H98.418Z" fill="white"/>
</g>
<defs>
<clipPath id="clip0_164_124">
<rect width="121.437" height="68" fill="white"/>
</clipPath>
</defs>
</svg>
