<svg width="30" height="30" viewBox="0 0 30 30" fill="none" xmlns="http://www.w3.org/2000/svg">
<path d="M14.9997 8.82861C11.5968 8.82861 8.82837 11.597 8.82837 14.9999C8.82837 18.4028 11.5967 21.1712 14.9997 21.1712C18.4025 21.1712 21.171 18.4027 21.171 14.9999C21.171 11.597 18.4025 8.82861 14.9997 8.82861ZM14.9997 19.8425C12.3294 19.8425 10.1571 17.6701 10.1571 14.9999C10.1571 12.3296 12.3294 10.1573 14.9997 10.1573C17.6699 10.1573 19.8423 12.3297 19.8423 14.9999C19.8423 17.6701 17.6699 19.8425 14.9997 19.8425Z" fill="#D0A659" stroke="#D0A659" stroke-width="0.2"/>
<path d="M19.7456 9.06738C19.7456 8.3392 20.3359 7.74902 21.064 7.74902C21.7922 7.74902 22.3823 8.3392 22.3823 9.06738C22.3823 9.79557 21.7922 10.3857 21.064 10.3857C20.3359 10.3857 19.7456 9.79557 19.7456 9.06738Z" fill="#D0A659"/>
<path d="M20.082 3.75H9.91803C6.51697 3.75 3.75 6.51697 3.75 9.91808V20.082C3.75 23.4831 6.51697 26.25 9.91803 26.25H20.082C23.4831 26.25 26.25 23.4831 26.25 20.082V9.91808C26.25 6.51697 23.4831 3.75 20.082 3.75ZM24.9213 20.082C24.9213 22.7504 22.7504 24.9213 20.082 24.9213H9.91803C7.24963 24.9213 5.07873 22.7504 5.07873 20.082V9.91808C5.07873 7.24963 7.24963 5.07873 9.91803 5.07873H20.082C22.7504 5.07873 24.9213 7.24963 24.9213 9.91808V20.082Z" fill="#D0A659" stroke="#D0A659" stroke-width="0.2"/>
</svg>
